<?xml version="1.0" encoding="us-ascii" standalone="no"?><svg xmlns="http://www.w3.org/2000/svg" xmlns:xlink="http://www.w3.org/1999/xlink" contentStyleType="text/css" height="2693px" preserveAspectRatio="none" style="width:580px;height:2693px;background:#FAFAFA;" version="1.1" viewBox="0 0 580 2693" width="580px" zoomAndPan="magnify"><defs/><g><rect fill="#FAFAFA" height="2693" style="stroke:none;stroke-width:1.0;" width="580" x="0" y="0"/><text fill="#000000" font-family="Helvetica" font-size="14" font-weight="bold" lengthAdjust="spacing" textLength="415" x="78.75" y="27.9951">KW 51 - Vehicle Location State Over Time (Mon-Thu)</text><line style="stroke:#181818;stroke-width:0.5;stroke-dasharray:5.0,5.0;" x1="124" x2="124" y1="89.8906" y2="2502.5938"/><line style="stroke:#181818;stroke-width:0.5;stroke-dasharray:5.0,5.0;" x1="353" x2="353" y1="89.8906" y2="2502.5938"/><rect fill="#E2E2F0" height="46.5938" rx="2.5" ry="2.5" style="stroke:#181818;stroke-width:0.5;" width="77" x="86" y="42.2969"/><text fill="#000000" font-family="Helvetica" font-size="14" lengthAdjust="spacing" textLength="56" x="96.5" y="62.292">Thomas</text><text fill="#000000" font-family="Helvetica" font-size="14" lengthAdjust="spacing" textLength="63" x="93" y="78.5889">(Driver 1)</text><rect fill="#E2E2F0" height="46.5938" rx="2.5" ry="2.5" style="stroke:#181818;stroke-width:0.5;" width="77" x="86" y="2501.5938"/><text fill="#000000" font-family="Helvetica" font-size="14" lengthAdjust="spacing" textLength="56" x="96.5" y="2521.5889">Thomas</text><text fill="#000000" font-family="Helvetica" font-size="14" lengthAdjust="spacing" textLength="63" x="93" y="2537.8857">(Driver 1)</text><rect fill="#E2E2F0" height="46.5938" rx="2.5" ry="2.5" style="stroke:#181818;stroke-width:0.5;" width="77" x="315" y="42.2969"/><text fill="#000000" font-family="Helvetica" font-size="14" lengthAdjust="spacing" textLength="39" x="334" y="62.292">Sarah</text><text fill="#000000" font-family="Helvetica" font-size="14" lengthAdjust="spacing" textLength="63" x="322" y="78.5889">(Driver 2)</text><rect fill="#E2E2F0" height="46.5938" rx="2.5" ry="2.5" style="stroke:#181818;stroke-width:0.5;" width="77" x="315" y="2501.5938"/><text fill="#000000" font-family="Helvetica" font-size="14" lengthAdjust="spacing" textLength="39" x="334" y="2521.5889">Sarah</text><text fill="#000000" font-family="Helvetica" font-size="14" lengthAdjust="spacing" textLength="63" x="322" y="2537.8857">(Driver 2)</text><rect fill="#EEEEEE" height="3" style="stroke:#EEEEEE;stroke-width:1.0;" width="573.5" x="0" y="120.457"/><line style="stroke:#000000;stroke-width:1.0;" x1="0" x2="573.5" y1="120.457" y2="120.457"/><line style="stroke:#000000;stroke-width:1.0;" x1="0" x2="573.5" y1="123.457" y2="123.457"/><rect fill="#EEEEEE" height="23.1328" style="stroke:#000000;stroke-width:2.0;" width="120" x="226.75" y="109.8906"/><text fill="#000000" font-family="Helvetica" font-size="13" font-weight="bold" lengthAdjust="spacing" textLength="101" x="232.75" y="125.9575">Early Morning</text><path d="M27,148.0234 L27,173.0234 L221,173.0234 L221,158.0234 L211,148.0234 L27,148.0234 " fill="#FEFFDD" style="stroke:#181818;stroke-width:0.5;"/><path d="M211,148.0234 L211,158.0234 L221,158.0234 L211,148.0234 " fill="#FEFFDD" style="stroke:#181818;stroke-width:0.5;"/><text fill="#000000" font-family="Helvetica" font-size="13" font-weight="bold" lengthAdjust="spacing" textLength="41" x="33" y="165.0903">04:00</text><text fill="#000000" font-family="Helvetica" font-size="13" lengthAdjust="spacing" textLength="128" x="78" y="165.0903">HUB (idle) #E0E0E0</text><path d="M243,183.1563 L243,208.1563 L463,208.1563 L463,193.1563 L453,183.1563 L243,183.1563 " fill="#FEFFDD" style="stroke:#181818;stroke-width:0.5;"/><path d="M453,183.1563 L453,193.1563 L463,193.1563 L453,183.1563 " fill="#FEFFDD" style="stroke:#181818;stroke-width:0.5;"/><text fill="#000000" font-family="Helvetica" font-size="13" font-weight="bold" lengthAdjust="spacing" textLength="41" x="249" y="200.2231">04:00</text><text fill="#000000" font-family="Helvetica" font-size="13" lengthAdjust="spacing" textLength="154" x="294" y="200.2231">HUB (off duty) #E0E0E0</text><line style="stroke:#181818;stroke-width:1.0;" x1="124.5" x2="166.5" y1="234.4219" y2="234.4219"/><line style="stroke:#181818;stroke-width:1.0;" x1="166.5" x2="166.5" y1="234.4219" y2="247.4219"/><line style="stroke:#181818;stroke-width:1.0;" x1="125.5" x2="166.5" y1="247.4219" y2="247.4219"/><polygon fill="#181818" points="135.5,243.4219,125.5,247.4219,135.5,251.4219,131.5,247.4219" style="stroke:#181818;stroke-width:1.0;"/><text fill="#000000" font-family="Helvetica" font-size="13" font-weight="bold" lengthAdjust="spacing" textLength="41" x="131.5" y="229.356">04:12</text><text fill="#000000" font-family="Helvetica" font-size="13" lengthAdjust="spacing" textLength="122" x="176.5" y="229.356">&gt;&gt; TANK #FFA726</text><line style="stroke:#181818;stroke-width:1.0;" x1="124.5" x2="166.5" y1="276.5547" y2="276.5547"/><line style="stroke:#181818;stroke-width:1.0;" x1="166.5" x2="166.5" y1="276.5547" y2="289.5547"/><line style="stroke:#181818;stroke-width:1.0;" x1="125.5" x2="166.5" y1="289.5547" y2="289.5547"/><polygon fill="#181818" points="135.5,285.5547,125.5,289.5547,135.5,293.5547,131.5,289.5547" style="stroke:#181818;stroke-width:1.0;"/><text fill="#000000" font-family="Helvetica" font-size="13" font-weight="bold" lengthAdjust="spacing" textLength="41" x="131.5" y="271.4888">04:20</text><text fill="#000000" font-family="Helvetica" font-size="13" lengthAdjust="spacing" textLength="150" x="176.5" y="271.4888">TANK +1 pax #66BB6A</text><line style="stroke:#181818;stroke-width:1.0;" x1="124.5" x2="166.5" y1="318.6875" y2="318.6875"/><line style="stroke:#181818;stroke-width:1.0;" x1="166.5" x2="166.5" y1="318.6875" y2="331.6875"/><line style="stroke:#181818;stroke-width:1.0;" x1="125.5" x2="166.5" y1="331.6875" y2="331.6875"/><polygon fill="#181818" points="135.5,327.6875,125.5,331.6875,135.5,335.6875,131.5,331.6875" style="stroke:#181818;stroke-width:1.0;"/><text fill="#000000" font-family="Helvetica" font-size="13" font-weight="bold" lengthAdjust="spacing" textLength="41" x="131.5" y="313.6216">04:22</text><text fill="#000000" font-family="Helvetica" font-size="13" lengthAdjust="spacing" textLength="117" x="176.5" y="313.6216">&gt;&gt; HUB #FFA726</text><line style="stroke:#181818;stroke-width:1.0;" x1="124.5" x2="166.5" y1="360.8203" y2="360.8203"/><line style="stroke:#181818;stroke-width:1.0;" x1="166.5" x2="166.5" y1="360.8203" y2="373.8203"/><line style="stroke:#181818;stroke-width:1.0;" x1="125.5" x2="166.5" y1="373.8203" y2="373.8203"/><polygon fill="#181818" points="135.5,369.8203,125.5,373.8203,135.5,377.8203,131.5,373.8203" style="stroke:#181818;stroke-width:1.0;"/><text fill="#000000" font-family="Helvetica" font-size="13" font-weight="bold" lengthAdjust="spacing" textLength="41" x="131.5" y="355.7544">04:30</text><text fill="#000000" font-family="Helvetica" font-size="13" lengthAdjust="spacing" textLength="145" x="176.5" y="355.7544">HUB +5 pax #66BB6A</text><path d="M33,386.8203 L33,411.8203 L215,411.8203 L215,396.8203 L205,386.8203 L33,386.8203 " fill="#FEFFDD" style="stroke:#181818;stroke-width:0.5;"/><path d="M205,386.8203 L205,396.8203 L215,396.8203 L205,386.8203 " fill="#FEFFDD" style="stroke:#181818;stroke-width:0.5;"/><text fill="#000000" font-family="Helvetica" font-size="13" font-weight="bold" lengthAdjust="spacing" textLength="100" x="39" y="403.8872">6/6 CAPACITY</text><text fill="#000000" font-family="Helvetica" font-size="13" lengthAdjust="spacing" textLength="57" x="143" y="403.8872">#FF7043</text><line style="stroke:#181818;stroke-width:1.0;" x1="124.5" x2="166.5" y1="438.0859" y2="438.0859"/><line style="stroke:#181818;stroke-width:1.0;" x1="166.5" x2="166.5" y1="438.0859" y2="451.0859"/><line style="stroke:#181818;stroke-width:1.0;" x1="125.5" x2="166.5" y1="451.0859" y2="451.0859"/><polygon fill="#181818" points="135.5,447.0859,125.5,451.0859,135.5,455.0859,131.5,451.0859" style="stroke:#181818;stroke-width:1.0;"/><text fill="#000000" font-family="Helvetica" font-size="13" font-weight="bold" lengthAdjust="spacing" textLength="41" x="131.5" y="433.02">04:40</text><text fill="#000000" font-family="Helvetica" font-size="13" lengthAdjust="spacing" textLength="122" x="176.5" y="433.02">&gt;&gt; CHEP #FF7043</text><line style="stroke:#181818;stroke-width:1.0;" x1="124.5" x2="166.5" y1="480.2188" y2="480.2188"/><line style="stroke:#181818;stroke-width:1.0;" x1="166.5" x2="166.5" y1="480.2188" y2="493.2188"/><line style="stroke:#181818;stroke-width:1.0;" x1="125.5" x2="166.5" y1="493.2188" y2="493.2188"/><polygon fill="#181818" points="135.5,489.2188,125.5,493.2188,135.5,497.2188,131.5,493.2188" style="stroke:#181818;stroke-width:1.0;"/><text fill="#000000" font-family="Helvetica" font-size="13" font-weight="bold" lengthAdjust="spacing" textLength="41" x="131.5" y="475.1528">05:09</text><text fill="#000000" font-family="Helvetica" font-size="13" lengthAdjust="spacing" textLength="142" x="176.5" y="475.1528">CHEP -5 pax #42A5F5</text><line style="stroke:#181818;stroke-width:1.0;" x1="124.5" x2="166.5" y1="522.3516" y2="522.3516"/><line style="stroke:#181818;stroke-width:1.0;" x1="166.5" x2="166.5" y1="522.3516" y2="535.3516"/><line style="stroke:#181818;stroke-width:1.0;" x1="125.5" x2="166.5" y1="535.3516" y2="535.3516"/><polygon fill="#181818" points="135.5,531.3516,125.5,535.3516,135.5,539.3516,131.5,535.3516" style="stroke:#181818;stroke-width:1.0;"/><text fill="#000000" font-family="Helvetica" font-size="13" font-weight="bold" lengthAdjust="spacing" textLength="41" x="131.5" y="517.2856">05:11</text><text fill="#000000" font-family="Helvetica" font-size="13" lengthAdjust="spacing" textLength="142" x="176.5" y="517.2856">&gt;&gt; SANNER #FFA726</text><line style="stroke:#181818;stroke-width:1.0;" x1="124.5" x2="166.5" y1="564.4844" y2="564.4844"/><line style="stroke:#181818;stroke-width:1.0;" x1="166.5" x2="166.5" y1="564.4844" y2="577.4844"/><line style="stroke:#181818;stroke-width:1.0;" x1="125.5" x2="166.5" y1="577.4844" y2="577.4844"/><polygon fill="#181818" points="135.5,573.4844,125.5,577.4844,135.5,581.4844,131.5,577.4844" style="stroke:#181818;stroke-width:1.0;"/><text fill="#000000" font-family="Helvetica" font-size="13" font-weight="bold" lengthAdjust="spacing" textLength="41" x="131.5" y="559.4185">05:37</text><text fill="#000000" font-family="Helvetica" font-size="13" lengthAdjust="spacing" textLength="161" x="176.5" y="559.4185">SANNER -1 pax #42A5F5</text><line style="stroke:#181818;stroke-width:1.0;" x1="124.5" x2="166.5" y1="606.6172" y2="606.6172"/><line style="stroke:#181818;stroke-width:1.0;" x1="166.5" x2="166.5" y1="606.6172" y2="619.6172"/><line style="stroke:#181818;stroke-width:1.0;" x1="125.5" x2="166.5" y1="619.6172" y2="619.6172"/><polygon fill="#181818" points="135.5,615.6172,125.5,619.6172,135.5,623.6172,131.5,619.6172" style="stroke:#181818;stroke-width:1.0;"/><text fill="#000000" font-family="Helvetica" font-size="13" font-weight="bold" lengthAdjust="spacing" textLength="41" x="131.5" y="601.5513">05:39</text><text fill="#000000" font-family="Helvetica" font-size="13" lengthAdjust="spacing" textLength="117" x="176.5" y="601.5513">&gt;&gt; HUB #FFA726</text><line style="stroke:#181818;stroke-width:1.0;" x1="124.5" x2="166.5" y1="648.75" y2="648.75"/><line style="stroke:#181818;stroke-width:1.0;" x1="166.5" x2="166.5" y1="648.75" y2="661.75"/><line style="stroke:#181818;stroke-width:1.0;" x1="125.5" x2="166.5" y1="661.75" y2="661.75"/><polygon fill="#181818" points="135.5,657.75,125.5,661.75,135.5,665.75,131.5,661.75" style="stroke:#181818;stroke-width:1.0;"/><text fill="#000000" font-family="Helvetica" font-size="13" font-weight="bold" lengthAdjust="spacing" textLength="41" x="131.5" y="643.6841">06:11</text><text fill="#000000" font-family="Helvetica" font-size="13" lengthAdjust="spacing" textLength="145" x="176.5" y="643.6841">HUB +2 pax #66BB6A</text><line style="stroke:#181818;stroke-width:1.0;" x1="124.5" x2="166.5" y1="690.8828" y2="690.8828"/><line style="stroke:#181818;stroke-width:1.0;" x1="166.5" x2="166.5" y1="690.8828" y2="703.8828"/><line style="stroke:#181818;stroke-width:1.0;" x1="125.5" x2="166.5" y1="703.8828" y2="703.8828"/><polygon fill="#181818" points="135.5,699.8828,125.5,703.8828,135.5,707.8828,131.5,703.8828" style="stroke:#181818;stroke-width:1.0;"/><text fill="#000000" font-family="Helvetica" font-size="13" font-weight="bold" lengthAdjust="spacing" textLength="41" x="131.5" y="685.8169">06:17</text><text fill="#000000" font-family="Helvetica" font-size="13" lengthAdjust="spacing" textLength="129" x="176.5" y="685.8169">&gt;&gt; ORION #FFA726</text><line style="stroke:#181818;stroke-width:1.0;" x1="124.5" x2="166.5" y1="733.0156" y2="733.0156"/><line style="stroke:#181818;stroke-width:1.0;" x1="166.5" x2="166.5" y1="733.0156" y2="746.0156"/><line style="stroke:#181818;stroke-width:1.0;" x1="125.5" x2="166.5" y1="746.0156" y2="746.0156"/><polygon fill="#181818" points="135.5,742.0156,125.5,746.0156,135.5,750.0156,131.5,746.0156" style="stroke:#181818;stroke-width:1.0;"/><text fill="#000000" font-family="Helvetica" font-size="13" font-weight="bold" lengthAdjust="spacing" textLength="41" x="131.5" y="727.9497">06:45</text><text fill="#000000" font-family="Helvetica" font-size="13" lengthAdjust="spacing" textLength="148" x="176.5" y="727.9497">ORION -2 pax #42A5F5</text><line style="stroke:#181818;stroke-width:1.0;" x1="124.5" x2="166.5" y1="775.1484" y2="775.1484"/><line style="stroke:#181818;stroke-width:1.0;" x1="166.5" x2="166.5" y1="775.1484" y2="788.1484"/><line style="stroke:#181818;stroke-width:1.0;" x1="125.5" x2="166.5" y1="788.1484" y2="788.1484"/><polygon fill="#181818" points="135.5,784.1484,125.5,788.1484,135.5,792.1484,131.5,788.1484" style="stroke:#181818;stroke-width:1.0;"/><text fill="#000000" font-family="Helvetica" font-size="13" font-weight="bold" lengthAdjust="spacing" textLength="41" x="131.5" y="770.0825">06:47</text><text fill="#000000" font-family="Helvetica" font-size="13" lengthAdjust="spacing" textLength="131" x="176.5" y="770.0825">&gt;&gt; BARBE #FFA726</text><line style="stroke:#181818;stroke-width:1.0;" x1="124.5" x2="166.5" y1="817.2813" y2="817.2813"/><line style="stroke:#181818;stroke-width:1.0;" x1="166.5" x2="166.5" y1="817.2813" y2="830.2813"/><line style="stroke:#181818;stroke-width:1.0;" x1="125.5" x2="166.5" y1="830.2813" y2="830.2813"/><polygon fill="#181818" points="135.5,826.2813,125.5,830.2813,135.5,834.2813,131.5,830.2813" style="stroke:#181818;stroke-width:1.0;"/><text fill="#000000" font-family="Helvetica" font-size="13" font-weight="bold" lengthAdjust="spacing" textLength="41" x="131.5" y="812.2153">07:09</text><text fill="#000000" font-family="Helvetica" font-size="13" lengthAdjust="spacing" textLength="159" x="176.5" y="812.2153">BARBE +2 pax #66BB6A</text><line style="stroke:#181818;stroke-width:1.0;" x1="124.5" x2="166.5" y1="859.4141" y2="859.4141"/><line style="stroke:#181818;stroke-width:1.0;" x1="166.5" x2="166.5" y1="859.4141" y2="872.4141"/><line style="stroke:#181818;stroke-width:1.0;" x1="125.5" x2="166.5" y1="872.4141" y2="872.4141"/><polygon fill="#181818" points="135.5,868.4141,125.5,872.4141,135.5,876.4141,131.5,872.4141" style="stroke:#181818;stroke-width:1.0;"/><text fill="#000000" font-family="Helvetica" font-size="13" font-weight="bold" lengthAdjust="spacing" textLength="41" x="131.5" y="854.3481">07:11</text><text fill="#000000" font-family="Helvetica" font-size="13" lengthAdjust="spacing" textLength="117" x="176.5" y="854.3481">&gt;&gt; HUB #FFA726</text><line style="stroke:#181818;stroke-width:1.0;" x1="124.5" x2="166.5" y1="901.5469" y2="901.5469"/><line style="stroke:#181818;stroke-width:1.0;" x1="166.5" x2="166.5" y1="901.5469" y2="914.5469"/><line style="stroke:#181818;stroke-width:1.0;" x1="125.5" x2="166.5" y1="914.5469" y2="914.5469"/><polygon fill="#181818" points="135.5,910.5469,125.5,914.5469,135.5,918.5469,131.5,914.5469" style="stroke:#181818;stroke-width:1.0;"/><text fill="#000000" font-family="Helvetica" font-size="13" font-weight="bold" lengthAdjust="spacing" textLength="41" x="131.5" y="896.481">07:13</text><text fill="#000000" font-family="Helvetica" font-size="13" lengthAdjust="spacing" textLength="136" x="176.5" y="896.481">HUB -2 pax #42A5F5</text><path d="M27,927.5469 L27,952.5469 L221,952.5469 L221,937.5469 L211,927.5469 L27,927.5469 " fill="#FEFFDD" style="stroke:#181818;stroke-width:0.5;"/><path d="M211,927.5469 L211,937.5469 L221,937.5469 L211,927.5469 " fill="#FEFFDD" style="stroke:#181818;stroke-width:0.5;"/><text fill="#000000" font-family="Helvetica" font-size="13" font-weight="bold" lengthAdjust="spacing" textLength="41" x="33" y="944.6138">07:15</text><text fill="#000000" font-family="Helvetica" font-size="13" lengthAdjust="spacing" textLength="128" x="78" y="944.6138">HUB (idle) #E0E0E0</text><rect fill="#EEEEEE" height="3" style="stroke:#EEEEEE;stroke-width:1.0;" width="573.5" x="0" y="978.2461"/><line style="stroke:#000000;stroke-width:1.0;" x1="0" x2="573.5" y1="978.2461" y2="978.2461"/><line style="stroke:#000000;stroke-width:1.0;" x1="0" x2="573.5" y1="981.2461" y2="981.2461"/><rect fill="#EEEEEE" height="23.1328" style="stroke:#000000;stroke-width:2.0;" width="73" x="250.25" y="967.6797"/><text fill="#000000" font-family="Helvetica" font-size="13" font-weight="bold" lengthAdjust="spacing" textLength="54" x="256.25" y="983.7466">Midday</text><path d="M5,1005.8125 L5,1030.8125 L245,1030.8125 L245,1015.8125 L235,1005.8125 L5,1005.8125 " fill="#FEFFDD" style="stroke:#181818;stroke-width:0.5;"/><path d="M235,1005.8125 L235,1015.8125 L245,1015.8125 L235,1005.8125 " fill="#FEFFDD" style="stroke:#181818;stroke-width:0.5;"/><text fill="#000000" font-family="Helvetica" font-size="13" font-weight="bold" lengthAdjust="spacing" textLength="97" x="11" y="1022.8794">07:15 - 14:00</text><text fill="#000000" font-family="Helvetica" font-size="13" lengthAdjust="spacing" textLength="118" x="112" y="1022.8794">HUB idle #E0E0E0</text><path d="M236,1040.9453 L236,1065.9453 L471,1065.9453 L471,1050.9453 L461,1040.9453 L236,1040.9453 " fill="#FEFFDD" style="stroke:#181818;stroke-width:0.5;"/><path d="M461,1040.9453 L461,1050.9453 L471,1050.9453 L461,1040.9453 " fill="#FEFFDD" style="stroke:#181818;stroke-width:0.5;"/><text fill="#000000" font-family="Helvetica" font-size="13" font-weight="bold" lengthAdjust="spacing" textLength="97" x="242" y="1058.0122">04:00 - 13:00</text><text fill="#000000" font-family="Helvetica" font-size="13" lengthAdjust="spacing" textLength="113" x="343" y="1058.0122">Off duty #E0E0E0</text><rect fill="#EEEEEE" height="3" style="stroke:#EEEEEE;stroke-width:1.0;" width="573.5" x="0" y="1091.6445"/><line style="stroke:#000000;stroke-width:1.0;" x1="0" x2="573.5" y1="1091.6445" y2="1091.6445"/><line style="stroke:#000000;stroke-width:1.0;" x1="0" x2="573.5" y1="1094.6445" y2="1094.6445"/><rect fill="#EEEEEE" height="23.1328" style="stroke:#000000;stroke-width:2.0;" width="92" x="240.75" y="1081.0781"/><text fill="#000000" font-family="Helvetica" font-size="13" font-weight="bold" lengthAdjust="spacing" textLength="73" x="246.75" y="1097.145">Afternoon</text><line style="stroke:#181818;stroke-width:1.0;" x1="124.5" x2="166.5" y1="1135.3438" y2="1135.3438"/><line style="stroke:#181818;stroke-width:1.0;" x1="166.5" x2="166.5" y1="1135.3438" y2="1148.3438"/><line style="stroke:#181818;stroke-width:1.0;" x1="125.5" x2="166.5" y1="1148.3438" y2="1148.3438"/><polygon fill="#181818" points="135.5,1144.3438,125.5,1148.3438,135.5,1152.3438,131.5,1148.3438" style="stroke:#181818;stroke-width:1.0;"/><text fill="#000000" font-family="Helvetica" font-size="13" font-weight="bold" lengthAdjust="spacing" textLength="41" x="131.5" y="1130.2778">14:00</text><text fill="#000000" font-family="Helvetica" font-size="13" lengthAdjust="spacing" textLength="123" x="176.5" y="1130.2778">&gt;&gt; CHEP #FFA726</text><line style="stroke:#181818;stroke-width:1.0;" x1="353.5" x2="395.5" y1="1177.4766" y2="1177.4766"/><line style="stroke:#181818;stroke-width:1.0;" x1="395.5" x2="395.5" y1="1177.4766" y2="1190.4766"/><line style="stroke:#181818;stroke-width:1.0;" x1="354.5" x2="395.5" y1="1190.4766" y2="1190.4766"/><polygon fill="#181818" points="364.5,1186.4766,354.5,1190.4766,364.5,1194.4766,360.5,1190.4766" style="stroke:#181818;stroke-width:1.0;"/><text fill="#000000" font-family="Helvetica" font-size="13" font-weight="bold" lengthAdjust="spacing" textLength="41" x="360.5" y="1172.4106">13:00</text><text fill="#000000" font-family="Helvetica" font-size="13" lengthAdjust="spacing" textLength="145" x="405.5" y="1172.4106">HUB +1 pax #66BB6A</text><line style="stroke:#181818;stroke-width:1.0;" x1="353.5" x2="395.5" y1="1219.6094" y2="1219.6094"/><line style="stroke:#181818;stroke-width:1.0;" x1="395.5" x2="395.5" y1="1219.6094" y2="1232.6094"/><line style="stroke:#181818;stroke-width:1.0;" x1="354.5" x2="395.5" y1="1232.6094" y2="1232.6094"/><polygon fill="#181818" points="364.5,1228.6094,354.5,1232.6094,364.5,1236.6094,360.5,1232.6094" style="stroke:#181818;stroke-width:1.0;"/><text fill="#000000" font-family="Helvetica" font-size="13" font-weight="bold" lengthAdjust="spacing" textLength="41" x="360.5" y="1214.5435">13:02</text><text fill="#000000" font-family="Helvetica" font-size="13" lengthAdjust="spacing" textLength="131" x="405.5" y="1214.5435">&gt;&gt; BARBE #FFA726</text><line style="stroke:#181818;stroke-width:1.0;" x1="353.5" x2="395.5" y1="1261.7422" y2="1261.7422"/><line style="stroke:#181818;stroke-width:1.0;" x1="395.5" x2="395.5" y1="1261.7422" y2="1274.7422"/><line style="stroke:#181818;stroke-width:1.0;" x1="354.5" x2="395.5" y1="1274.7422" y2="1274.7422"/><polygon fill="#181818" points="364.5,1270.7422,354.5,1274.7422,364.5,1278.7422,360.5,1274.7422" style="stroke:#181818;stroke-width:1.0;"/><text fill="#000000" font-family="Helvetica" font-size="13" font-weight="bold" lengthAdjust="spacing" textLength="41" x="360.5" y="1256.6763">13:04</text><text fill="#000000" font-family="Helvetica" font-size="13" lengthAdjust="spacing" textLength="150" x="405.5" y="1256.6763">BARBE -1 pax #42A5F5</text><line style="stroke:#181818;stroke-width:1.0;" x1="353.5" x2="395.5" y1="1303.875" y2="1303.875"/><line style="stroke:#181818;stroke-width:1.0;" x1="395.5" x2="395.5" y1="1303.875" y2="1316.875"/><line style="stroke:#181818;stroke-width:1.0;" x1="354.5" x2="395.5" y1="1316.875" y2="1316.875"/><polygon fill="#181818" points="364.5,1312.875,354.5,1316.875,364.5,1320.875,360.5,1316.875" style="stroke:#181818;stroke-width:1.0;"/><text fill="#000000" font-family="Helvetica" font-size="13" font-weight="bold" lengthAdjust="spacing" textLength="41" x="360.5" y="1298.8091">13:05</text><text fill="#000000" font-family="Helvetica" font-size="13" lengthAdjust="spacing" textLength="117" x="405.5" y="1298.8091">&gt;&gt; HUB #FFA726</text><line style="stroke:#181818;stroke-width:1.0;" x1="353.5" x2="395.5" y1="1346.0078" y2="1346.0078"/><line style="stroke:#181818;stroke-width:1.0;" x1="395.5" x2="395.5" y1="1346.0078" y2="1359.0078"/><line style="stroke:#181818;stroke-width:1.0;" x1="354.5" x2="395.5" y1="1359.0078" y2="1359.0078"/><polygon fill="#181818" points="364.5,1355.0078,354.5,1359.0078,364.5,1363.0078,360.5,1359.0078" style="stroke:#181818;stroke-width:1.0;"/><text fill="#000000" font-family="Helvetica" font-size="13" font-weight="bold" lengthAdjust="spacing" textLength="41" x="360.5" y="1340.9419">13:07</text><text fill="#000000" font-family="Helvetica" font-size="13" lengthAdjust="spacing" textLength="136" x="405.5" y="1340.9419">HUB -1 pax #42A5F5</text><path d="M261,1372.0078 L261,1397.0078 L445,1397.0078 L445,1382.0078 L435,1372.0078 L261,1372.0078 " fill="#FEFFDD" style="stroke:#181818;stroke-width:0.5;"/><path d="M435,1372.0078 L435,1382.0078 L445,1382.0078 L435,1372.0078 " fill="#FEFFDD" style="stroke:#181818;stroke-width:0.5;"/><text fill="#000000" font-family="Helvetica" font-size="13" font-weight="bold" lengthAdjust="spacing" textLength="41" x="267" y="1389.0747">13:07</text><text fill="#000000" font-family="Helvetica" font-size="13" lengthAdjust="spacing" textLength="118" x="312" y="1389.0747">HUB idle #E0E0E0</text><line style="stroke:#181818;stroke-width:1.0;" x1="124.5" x2="166.5" y1="1423.2734" y2="1423.2734"/><line style="stroke:#181818;stroke-width:1.0;" x1="166.5" x2="166.5" y1="1423.2734" y2="1436.2734"/><line style="stroke:#181818;stroke-width:1.0;" x1="125.5" x2="166.5" y1="1436.2734" y2="1436.2734"/><polygon fill="#181818" points="135.5,1432.2734,125.5,1436.2734,135.5,1440.2734,131.5,1436.2734" style="stroke:#181818;stroke-width:1.0;"/><text fill="#000000" font-family="Helvetica" font-size="13" font-weight="bold" lengthAdjust="spacing" textLength="41" x="131.5" y="1418.2075">14:29</text><text fill="#000000" font-family="Helvetica" font-size="13" lengthAdjust="spacing" textLength="151" x="176.5" y="1418.2075">CHEP +5 pax #66BB6A</text><line style="stroke:#181818;stroke-width:1.0;" x1="124.5" x2="166.5" y1="1465.4063" y2="1465.4063"/><line style="stroke:#181818;stroke-width:1.0;" x1="166.5" x2="166.5" y1="1465.4063" y2="1478.4063"/><line style="stroke:#181818;stroke-width:1.0;" x1="125.5" x2="166.5" y1="1478.4063" y2="1478.4063"/><polygon fill="#181818" points="135.5,1474.4063,125.5,1478.4063,135.5,1482.4063,131.5,1478.4063" style="stroke:#181818;stroke-width:1.0;"/><text fill="#000000" font-family="Helvetica" font-size="13" font-weight="bold" lengthAdjust="spacing" textLength="41" x="131.5" y="1460.3403">14:31</text><text fill="#000000" font-family="Helvetica" font-size="13" lengthAdjust="spacing" textLength="117" x="176.5" y="1460.3403">&gt;&gt; HUB #FFA726</text><line style="stroke:#181818;stroke-width:1.0;" x1="353.5" x2="395.5" y1="1507.5391" y2="1507.5391"/><line style="stroke:#181818;stroke-width:1.0;" x1="395.5" x2="395.5" y1="1507.5391" y2="1520.5391"/><line style="stroke:#181818;stroke-width:1.0;" x1="354.5" x2="395.5" y1="1520.5391" y2="1520.5391"/><polygon fill="#181818" points="364.5,1516.5391,354.5,1520.5391,364.5,1524.5391,360.5,1520.5391" style="stroke:#181818;stroke-width:1.0;"/><text fill="#000000" font-family="Helvetica" font-size="13" font-weight="bold" lengthAdjust="spacing" textLength="41" x="360.5" y="1502.4731">14:29</text><text fill="#000000" font-family="Helvetica" font-size="13" lengthAdjust="spacing" textLength="117" x="405.5" y="1502.4731">&gt;&gt; HUB #FFA726</text><line style="stroke:#181818;stroke-width:1.0;" x1="124.5" x2="166.5" y1="1549.6719" y2="1549.6719"/><line style="stroke:#181818;stroke-width:1.0;" x1="166.5" x2="166.5" y1="1549.6719" y2="1562.6719"/><line style="stroke:#181818;stroke-width:1.0;" x1="125.5" x2="166.5" y1="1562.6719" y2="1562.6719"/><polygon fill="#181818" points="135.5,1558.6719,125.5,1562.6719,135.5,1566.6719,131.5,1562.6719" style="stroke:#181818;stroke-width:1.0;"/><text fill="#000000" font-family="Helvetica" font-size="13" font-weight="bold" lengthAdjust="spacing" textLength="41" x="131.5" y="1544.606">15:00</text><text fill="#000000" font-family="Helvetica" font-size="13" lengthAdjust="spacing" textLength="136" x="176.5" y="1544.606">HUB -5 pax #42A5F5</text><line style="stroke:#181818;stroke-width:1.0;" x1="353.5" x2="395.5" y1="1591.8047" y2="1591.8047"/><line style="stroke:#181818;stroke-width:1.0;" x1="395.5" x2="395.5" y1="1591.8047" y2="1604.8047"/><line style="stroke:#181818;stroke-width:1.0;" x1="354.5" x2="395.5" y1="1604.8047" y2="1604.8047"/><polygon fill="#181818" points="364.5,1600.8047,354.5,1604.8047,364.5,1608.8047,360.5,1604.8047" style="stroke:#181818;stroke-width:1.0;"/><text fill="#000000" font-family="Helvetica" font-size="13" font-weight="bold" lengthAdjust="spacing" textLength="41" x="360.5" y="1586.7388">15:00</text><text fill="#000000" font-family="Helvetica" font-size="13" lengthAdjust="spacing" textLength="118" x="405.5" y="1586.7388">HUB idle #E0E0E0</text><line style="stroke:#181818;stroke-width:1.0;" x1="124.5" x2="166.5" y1="1633.9375" y2="1633.9375"/><line style="stroke:#181818;stroke-width:1.0;" x1="166.5" x2="166.5" y1="1633.9375" y2="1646.9375"/><line style="stroke:#181818;stroke-width:1.0;" x1="125.5" x2="166.5" y1="1646.9375" y2="1646.9375"/><polygon fill="#181818" points="135.5,1642.9375,125.5,1646.9375,135.5,1650.9375,131.5,1646.9375" style="stroke:#181818;stroke-width:1.0;"/><text fill="#000000" font-family="Helvetica" font-size="13" font-weight="bold" lengthAdjust="spacing" textLength="41" x="131.5" y="1628.8716">15:02</text><text fill="#000000" font-family="Helvetica" font-size="13" lengthAdjust="spacing" textLength="142" x="176.5" y="1628.8716">&gt;&gt; SANNER #FFA726</text><line style="stroke:#181818;stroke-width:1.0;" x1="124.5" x2="166.5" y1="1676.0703" y2="1676.0703"/><line style="stroke:#181818;stroke-width:1.0;" x1="166.5" x2="166.5" y1="1676.0703" y2="1689.0703"/><line style="stroke:#181818;stroke-width:1.0;" x1="125.5" x2="166.5" y1="1689.0703" y2="1689.0703"/><polygon fill="#181818" points="135.5,1685.0703,125.5,1689.0703,135.5,1693.0703,131.5,1689.0703" style="stroke:#181818;stroke-width:1.0;"/><text fill="#000000" font-family="Helvetica" font-size="13" font-weight="bold" lengthAdjust="spacing" textLength="41" x="131.5" y="1671.0044">15:34</text><text fill="#000000" font-family="Helvetica" font-size="13" lengthAdjust="spacing" textLength="170" x="176.5" y="1671.0044">SANNER +1 pax #66BB6A</text><line style="stroke:#181818;stroke-width:1.0;" x1="124.5" x2="166.5" y1="1718.2031" y2="1718.2031"/><line style="stroke:#181818;stroke-width:1.0;" x1="166.5" x2="166.5" y1="1718.2031" y2="1731.2031"/><line style="stroke:#181818;stroke-width:1.0;" x1="125.5" x2="166.5" y1="1731.2031" y2="1731.2031"/><polygon fill="#181818" points="135.5,1727.2031,125.5,1731.2031,135.5,1735.2031,131.5,1731.2031" style="stroke:#181818;stroke-width:1.0;"/><text fill="#000000" font-family="Helvetica" font-size="13" font-weight="bold" lengthAdjust="spacing" textLength="41" x="131.5" y="1713.1372">15:36</text><text fill="#000000" font-family="Helvetica" font-size="13" lengthAdjust="spacing" textLength="117" x="176.5" y="1713.1372">&gt;&gt; HUB #FFA726</text><line style="stroke:#181818;stroke-width:1.0;" x1="124.5" x2="166.5" y1="1760.3359" y2="1760.3359"/><line style="stroke:#181818;stroke-width:1.0;" x1="166.5" x2="166.5" y1="1760.3359" y2="1773.3359"/><line style="stroke:#181818;stroke-width:1.0;" x1="125.5" x2="166.5" y1="1773.3359" y2="1773.3359"/><polygon fill="#181818" points="135.5,1769.3359,125.5,1773.3359,135.5,1777.3359,131.5,1773.3359" style="stroke:#181818;stroke-width:1.0;"/><text fill="#000000" font-family="Helvetica" font-size="13" font-weight="bold" lengthAdjust="spacing" textLength="41" x="131.5" y="1755.27">16:08</text><text fill="#000000" font-family="Helvetica" font-size="13" lengthAdjust="spacing" textLength="136" x="176.5" y="1755.27">HUB -1 pax #42A5F5</text><line style="stroke:#181818;stroke-width:1.0;" x1="124.5" x2="166.5" y1="1802.4688" y2="1802.4688"/><line style="stroke:#181818;stroke-width:1.0;" x1="166.5" x2="166.5" y1="1802.4688" y2="1815.4688"/><line style="stroke:#181818;stroke-width:1.0;" x1="125.5" x2="166.5" y1="1815.4688" y2="1815.4688"/><polygon fill="#181818" points="135.5,1811.4688,125.5,1815.4688,135.5,1819.4688,131.5,1815.4688" style="stroke:#181818;stroke-width:1.0;"/><text fill="#000000" font-family="Helvetica" font-size="13" font-weight="bold" lengthAdjust="spacing" textLength="41" x="131.5" y="1797.4028">16:10</text><text fill="#000000" font-family="Helvetica" font-size="13" lengthAdjust="spacing" textLength="129" x="176.5" y="1797.4028">&gt;&gt; ORION #FFA726</text><line style="stroke:#181818;stroke-width:1.0;" x1="124.5" x2="166.5" y1="1844.6016" y2="1844.6016"/><line style="stroke:#181818;stroke-width:1.0;" x1="166.5" x2="166.5" y1="1844.6016" y2="1857.6016"/><line style="stroke:#181818;stroke-width:1.0;" x1="125.5" x2="166.5" y1="1857.6016" y2="1857.6016"/><polygon fill="#181818" points="135.5,1853.6016,125.5,1857.6016,135.5,1861.6016,131.5,1857.6016" style="stroke:#181818;stroke-width:1.0;"/><text fill="#000000" font-family="Helvetica" font-size="13" font-weight="bold" lengthAdjust="spacing" textLength="41" x="131.5" y="1839.5356">16:38</text><text fill="#000000" font-family="Helvetica" font-size="13" lengthAdjust="spacing" textLength="157" x="176.5" y="1839.5356">ORION +2 pax #66BB6A</text><line style="stroke:#181818;stroke-width:1.0;" x1="124.5" x2="166.5" y1="1886.7344" y2="1886.7344"/><line style="stroke:#181818;stroke-width:1.0;" x1="166.5" x2="166.5" y1="1886.7344" y2="1899.7344"/><line style="stroke:#181818;stroke-width:1.0;" x1="125.5" x2="166.5" y1="1899.7344" y2="1899.7344"/><polygon fill="#181818" points="135.5,1895.7344,125.5,1899.7344,135.5,1903.7344,131.5,1899.7344" style="stroke:#181818;stroke-width:1.0;"/><text fill="#000000" font-family="Helvetica" font-size="13" font-weight="bold" lengthAdjust="spacing" textLength="41" x="131.5" y="1881.6685">16:40</text><text fill="#000000" font-family="Helvetica" font-size="13" lengthAdjust="spacing" textLength="117" x="176.5" y="1881.6685">&gt;&gt; HUB #FFA726</text><line style="stroke:#181818;stroke-width:1.0;" x1="124.5" x2="166.5" y1="1928.8672" y2="1928.8672"/><line style="stroke:#181818;stroke-width:1.0;" x1="166.5" x2="166.5" y1="1928.8672" y2="1941.8672"/><line style="stroke:#181818;stroke-width:1.0;" x1="125.5" x2="166.5" y1="1941.8672" y2="1941.8672"/><polygon fill="#181818" points="135.5,1937.8672,125.5,1941.8672,135.5,1945.8672,131.5,1941.8672" style="stroke:#181818;stroke-width:1.0;"/><text fill="#000000" font-family="Helvetica" font-size="13" font-weight="bold" lengthAdjust="spacing" textLength="41" x="131.5" y="1923.8013">17:08</text><text fill="#000000" font-family="Helvetica" font-size="13" lengthAdjust="spacing" textLength="128" x="176.5" y="1923.8013">HUB done #E0E0E0</text><rect fill="#EEEEEE" height="3" style="stroke:#EEEEEE;stroke-width:1.0;" width="573.5" x="0" y="1970.4336"/><line style="stroke:#000000;stroke-width:1.0;" x1="0" x2="573.5" y1="1970.4336" y2="1970.4336"/><line style="stroke:#000000;stroke-width:1.0;" x1="0" x2="573.5" y1="1973.4336" y2="1973.4336"/><rect fill="#EEEEEE" height="23.1328" style="stroke:#000000;stroke-width:2.0;" width="77" x="248.25" y="1959.8672"/><text fill="#000000" font-family="Helvetica" font-size="13" font-weight="bold" lengthAdjust="spacing" textLength="58" x="254.25" y="1975.9341">Evening</text><path d="M60,1998 L60,2023 L188,2023 L188,2008 L178,1998 L60,1998 " fill="#FEFFDD" style="stroke:#181818;stroke-width:0.5;"/><path d="M178,1998 L178,2008 L188,2008 L178,1998 " fill="#FEFFDD" style="stroke:#181818;stroke-width:0.5;"/><text fill="#000000" font-family="Helvetica" font-size="13" lengthAdjust="spacing" textLength="107" x="66" y="2015.0669">Done for the day</text><line style="stroke:#181818;stroke-width:1.0;" x1="353.5" x2="395.5" y1="2049.2656" y2="2049.2656"/><line style="stroke:#181818;stroke-width:1.0;" x1="395.5" x2="395.5" y1="2049.2656" y2="2062.2656"/><line style="stroke:#181818;stroke-width:1.0;" x1="354.5" x2="395.5" y1="2062.2656" y2="2062.2656"/><polygon fill="#181818" points="364.5,2058.2656,354.5,2062.2656,364.5,2066.2656,360.5,2062.2656" style="stroke:#181818;stroke-width:1.0;"/><text fill="#000000" font-family="Helvetica" font-size="13" font-weight="bold" lengthAdjust="spacing" textLength="41" x="360.5" y="2044.1997">21:30</text><text fill="#000000" font-family="Helvetica" font-size="13" lengthAdjust="spacing" textLength="145" x="405.5" y="2044.1997">HUB +2 pax #66BB6A</text><line style="stroke:#181818;stroke-width:1.0;" x1="353.5" x2="395.5" y1="2091.3984" y2="2091.3984"/><line style="stroke:#181818;stroke-width:1.0;" x1="395.5" x2="395.5" y1="2091.3984" y2="2104.3984"/><line style="stroke:#181818;stroke-width:1.0;" x1="354.5" x2="395.5" y1="2104.3984" y2="2104.3984"/><polygon fill="#181818" points="364.5,2100.3984,354.5,2104.3984,364.5,2108.3984,360.5,2104.3984" style="stroke:#181818;stroke-width:1.0;"/><text fill="#000000" font-family="Helvetica" font-size="13" font-weight="bold" lengthAdjust="spacing" textLength="41" x="360.5" y="2086.3325">21:32</text><text fill="#000000" font-family="Helvetica" font-size="13" lengthAdjust="spacing" textLength="131" x="405.5" y="2086.3325">&gt;&gt; BARBE #FFA726</text><line style="stroke:#181818;stroke-width:1.0;" x1="353.5" x2="395.5" y1="2133.5313" y2="2133.5313"/><line style="stroke:#181818;stroke-width:1.0;" x1="395.5" x2="395.5" y1="2133.5313" y2="2146.5313"/><line style="stroke:#181818;stroke-width:1.0;" x1="354.5" x2="395.5" y1="2146.5313" y2="2146.5313"/><polygon fill="#181818" points="364.5,2142.5313,354.5,2146.5313,364.5,2150.5313,360.5,2146.5313" style="stroke:#181818;stroke-width:1.0;"/><text fill="#000000" font-family="Helvetica" font-size="13" font-weight="bold" lengthAdjust="spacing" textLength="41" x="360.5" y="2128.4653">21:34</text><text fill="#000000" font-family="Helvetica" font-size="13" lengthAdjust="spacing" textLength="150" x="405.5" y="2128.4653">BARBE -2 pax #42A5F5</text><line style="stroke:#181818;stroke-width:1.0;" x1="353.5" x2="395.5" y1="2175.6641" y2="2175.6641"/><line style="stroke:#181818;stroke-width:1.0;" x1="395.5" x2="395.5" y1="2175.6641" y2="2188.6641"/><line style="stroke:#181818;stroke-width:1.0;" x1="354.5" x2="395.5" y1="2188.6641" y2="2188.6641"/><polygon fill="#181818" points="364.5,2184.6641,354.5,2188.6641,364.5,2192.6641,360.5,2188.6641" style="stroke:#181818;stroke-width:1.0;"/><text fill="#000000" font-family="Helvetica" font-size="13" font-weight="bold" lengthAdjust="spacing" textLength="41" x="360.5" y="2170.5981">21:36</text><text fill="#000000" font-family="Helvetica" font-size="13" lengthAdjust="spacing" textLength="159" x="405.5" y="2170.5981">BARBE +1 pax #66BB6A</text><line style="stroke:#181818;stroke-width:1.0;" x1="353.5" x2="395.5" y1="2217.7969" y2="2217.7969"/><line style="stroke:#181818;stroke-width:1.0;" x1="395.5" x2="395.5" y1="2217.7969" y2="2230.7969"/><line style="stroke:#181818;stroke-width:1.0;" x1="354.5" x2="395.5" y1="2230.7969" y2="2230.7969"/><polygon fill="#181818" points="364.5,2226.7969,354.5,2230.7969,364.5,2234.7969,360.5,2230.7969" style="stroke:#181818;stroke-width:1.0;"/><text fill="#000000" font-family="Helvetica" font-size="13" font-weight="bold" lengthAdjust="spacing" textLength="41" x="360.5" y="2212.731">21:38</text><text fill="#000000" font-family="Helvetica" font-size="13" lengthAdjust="spacing" textLength="117" x="405.5" y="2212.731">&gt;&gt; HUB #FFA726</text><line style="stroke:#181818;stroke-width:1.0;" x1="353.5" x2="395.5" y1="2259.9297" y2="2259.9297"/><line style="stroke:#181818;stroke-width:1.0;" x1="395.5" x2="395.5" y1="2259.9297" y2="2272.9297"/><line style="stroke:#181818;stroke-width:1.0;" x1="354.5" x2="395.5" y1="2272.9297" y2="2272.9297"/><polygon fill="#181818" points="364.5,2268.9297,354.5,2272.9297,364.5,2276.9297,360.5,2272.9297" style="stroke:#181818;stroke-width:1.0;"/><text fill="#000000" font-family="Helvetica" font-size="13" font-weight="bold" lengthAdjust="spacing" textLength="41" x="360.5" y="2254.8638">21:40</text><text fill="#000000" font-family="Helvetica" font-size="13" lengthAdjust="spacing" textLength="136" x="405.5" y="2254.8638">HUB -1 pax #42A5F5</text><line style="stroke:#181818;stroke-width:1.0;" x1="353.5" x2="395.5" y1="2302.0625" y2="2302.0625"/><line style="stroke:#181818;stroke-width:1.0;" x1="395.5" x2="395.5" y1="2302.0625" y2="2315.0625"/><line style="stroke:#181818;stroke-width:1.0;" x1="354.5" x2="395.5" y1="2315.0625" y2="2315.0625"/><polygon fill="#181818" points="364.5,2311.0625,354.5,2315.0625,364.5,2319.0625,360.5,2315.0625" style="stroke:#181818;stroke-width:1.0;"/><text fill="#000000" font-family="Helvetica" font-size="13" font-weight="bold" lengthAdjust="spacing" textLength="41" x="360.5" y="2296.9966">21:42</text><text fill="#000000" font-family="Helvetica" font-size="13" lengthAdjust="spacing" textLength="133" x="405.5" y="2296.9966">&gt;&gt; BENEO #FFA726</text><line style="stroke:#181818;stroke-width:1.0;" x1="353.5" x2="395.5" y1="2344.1953" y2="2344.1953"/><line style="stroke:#181818;stroke-width:1.0;" x1="395.5" x2="395.5" y1="2344.1953" y2="2357.1953"/><line style="stroke:#181818;stroke-width:1.0;" x1="354.5" x2="395.5" y1="2357.1953" y2="2357.1953"/><polygon fill="#181818" points="364.5,2353.1953,354.5,2357.1953,364.5,2361.1953,360.5,2357.1953" style="stroke:#181818;stroke-width:1.0;"/><text fill="#000000" font-family="Helvetica" font-size="13" font-weight="bold" lengthAdjust="spacing" textLength="41" x="360.5" y="2339.1294">22:16</text><text fill="#000000" font-family="Helvetica" font-size="13" lengthAdjust="spacing" textLength="161" x="405.5" y="2339.1294">BENEO +1 pax #66BB6A</text><line style="stroke:#181818;stroke-width:1.0;" x1="353.5" x2="395.5" y1="2386.3281" y2="2386.3281"/><line style="stroke:#181818;stroke-width:1.0;" x1="395.5" x2="395.5" y1="2386.3281" y2="2399.3281"/><line style="stroke:#181818;stroke-width:1.0;" x1="354.5" x2="395.5" y1="2399.3281" y2="2399.3281"/><polygon fill="#181818" points="364.5,2395.3281,354.5,2399.3281,364.5,2403.3281,360.5,2399.3281" style="stroke:#181818;stroke-width:1.0;"/><text fill="#000000" font-family="Helvetica" font-size="13" font-weight="bold" lengthAdjust="spacing" textLength="41" x="360.5" y="2381.2622">22:18</text><text fill="#000000" font-family="Helvetica" font-size="13" lengthAdjust="spacing" textLength="117" x="405.5" y="2381.2622">&gt;&gt; HUB #FFA726</text><line style="stroke:#181818;stroke-width:1.0;" x1="353.5" x2="395.5" y1="2428.4609" y2="2428.4609"/><line style="stroke:#181818;stroke-width:1.0;" x1="395.5" x2="395.5" y1="2428.4609" y2="2441.4609"/><line style="stroke:#181818;stroke-width:1.0;" x1="354.5" x2="395.5" y1="2441.4609" y2="2441.4609"/><polygon fill="#181818" points="364.5,2437.4609,354.5,2441.4609,364.5,2445.4609,360.5,2441.4609" style="stroke:#181818;stroke-width:1.0;"/><text fill="#000000" font-family="Helvetica" font-size="13" font-weight="bold" lengthAdjust="spacing" textLength="41" x="360.5" y="2423.395">22:52</text><text fill="#000000" font-family="Helvetica" font-size="13" lengthAdjust="spacing" textLength="128" x="405.5" y="2423.395">HUB done #E0E0E0</text><rect fill="#EEEEEE" height="3" style="stroke:#EEEEEE;stroke-width:1.0;" width="573.5" x="0" y="2470.0273"/><line style="stroke:#000000;stroke-width:1.0;" x1="0" x2="573.5" y1="2470.0273" y2="2470.0273"/><line style="stroke:#000000;stroke-width:1.0;" x1="0" x2="573.5" y1="2473.0273" y2="2473.0273"/><rect fill="#EEEEEE" height="23.1328" style="stroke:#000000;stroke-width:2.0;" width="74" x="249.75" y="2459.4609"/><text fill="#000000" font-family="Helvetica" font-size="13" font-weight="bold" lengthAdjust="spacing" textLength="55" x="255.75" y="2475.5278">Legend</text><rect fill="none" height="111.7813" id="_legend" rx="7.5" ry="7.5" style="stroke:#000000;stroke-width:1.0;" width="206" x="354.5" y="2562.1875"/><text fill="#000000" font-family="Helvetica" font-size="14" font-weight="bold" lengthAdjust="spacing" textLength="42" x="364.5" y="2582.1826">Color</text><text fill="#000000" font-family="Helvetica" font-size="14" font-weight="bold" lengthAdjust="spacing" textLength="41" x="416.5" y="2582.1826">State</text><rect fill="#66BB6A" height="16.2969" style="stroke:none;stroke-width:1.0;" width="52" x="359.5" y="2585.4844"/><text fill="#000000" font-family="Helvetica" font-size="14" lengthAdjust="spacing" textLength="8" x="359.5" y="2598.4795">&#160;&#160;</text><text fill="#000000" font-family="Helvetica" font-size="14" lengthAdjust="spacing" textLength="110" x="415.5" y="2598.4795">Pickup (+N pax)</text><rect fill="#FFA726" height="16.2969" style="stroke:none;stroke-width:1.0;" width="52" x="359.5" y="2601.7813"/><text fill="#000000" font-family="Helvetica" font-size="14" lengthAdjust="spacing" textLength="8" x="359.5" y="2614.7764">&#160;&#160;</text><text fill="#000000" font-family="Helvetica" font-size="14" lengthAdjust="spacing" textLength="85" x="415.5" y="2614.7764">Driving (&gt;&gt;)</text><rect fill="#FF7043" height="16.2969" style="stroke:none;stroke-width:1.0;" width="52" x="359.5" y="2618.0781"/><text fill="#000000" font-family="Helvetica" font-size="14" lengthAdjust="spacing" textLength="8" x="359.5" y="2631.0732">&#160;&#160;</text><text fill="#000000" font-family="Helvetica" font-size="14" lengthAdjust="spacing" textLength="136" x="415.5" y="2631.0732">Driving at CAPACITY</text><rect fill="#42A5F5" height="16.2969" style="stroke:none;stroke-width:1.0;" width="52" x="359.5" y="2634.375"/><text fill="#000000" font-family="Helvetica" font-size="14" lengthAdjust="spacing" textLength="8" x="359.5" y="2647.3701">&#160;&#160;</text><text fill="#000000" font-family="Helvetica" font-size="14" lengthAdjust="spacing" textLength="108" x="415.5" y="2647.3701">Dropoff (-N pax)</text><rect fill="#E0E0E0" height="16.2969" style="stroke:none;stroke-width:1.0;" width="52" x="359.5" y="2650.6719"/><text fill="#000000" font-family="Helvetica" font-size="14" lengthAdjust="spacing" textLength="8" x="359.5" y="2663.667">&#160;&#160;</text><text fill="#000000" font-family="Helvetica" font-size="14" lengthAdjust="spacing" textLength="75" x="415.5" y="2663.667">Idle / Done</text><line style="stroke:#000000;stroke-width:1.0;" x1="359.5" x2="555.5" y1="2569.1875" y2="2569.1875"/><line style="stroke:#000000;stroke-width:1.0;" x1="359.5" x2="555.5" y1="2585.4844" y2="2585.4844"/><line style="stroke:#000000;stroke-width:1.0;" x1="359.5" x2="555.5" y1="2601.7813" y2="2601.7813"/><line style="stroke:#000000;stroke-width:1.0;" x1="359.5" x2="555.5" y1="2618.0781" y2="2618.0781"/><line style="stroke:#000000;stroke-width:1.0;" x1="359.5" x2="555.5" y1="2634.375" y2="2634.375"/><line style="stroke:#000000;stroke-width:1.0;" x1="359.5" x2="555.5" y1="2650.6719" y2="2650.6719"/><line style="stroke:#000000;stroke-width:1.0;" x1="359.5" x2="555.5" y1="2666.9688" y2="2666.9688"/><line style="stroke:#000000;stroke-width:1.0;" x1="359.5" x2="359.5" y1="2569.1875" y2="2666.9688"/><line style="stroke:#000000;stroke-width:1.0;" x1="411.5" x2="411.5" y1="2569.1875" y2="2666.9688"/><line style="stroke:#000000;stroke-width:1.0;" x1="555.5" x2="555.5" y1="2569.1875" y2="2666.9688"/><!--SRC=[XPPTRw9058Rl-HKdxOtQc3B3Lskg2LfCcrPjghkRJVPcAgEIqXaNiTac_V4xmu020iORX8Vtd3ddl3FitWEs9H7vW3UoV5z7VC_y4Gzv19TZL_wqtO7mwOhimtZCMJmb7nGUQFX9us19SioE_jrJjgGJkjkHDNN3OCrWILbC8qsBWpYayFGBB0HT-4atmLByV-PB4WUSmJmcCONP9urW4GZzreIpxcApRskQ41U1WYrXCLmiDlo3xFwmrdqKI1YrBu3iO56avYAVpH722ffhMhyF7ed2BvZmY0Li3Vs-fZ4kGlCaDFIWqz7DdgvtEl3mOmYjm0zf6ouzNVvowFmKvQiL-FluwuXh2-WEZge82tGWRhZJ9r7ZiUjWkuHWgPOylqAm9V_WqhQ7GzijOwcIZ5ijP6HfNLa5dU9Yxzu6zhKD8_V57JqkVjzTlmsadgERHadFr5N4qOFtKebOFVrM8CdpRXhJnAurjaeOGaffxawdtcjb-bRFS0IK4btKe6RSDbV2Ll6IIk3QYWhAKJgpryVPj4R9j0IZW2wkpKbmgTRGVHrwbLgEAfO26l9o3jMgMvyWZ7HzfPnEnbgWLlLOIrzC0jydNzM6a6yArwBSj4k1Pbl85mprmYnrHY6Wkn8R0-F2_39cRarPcDoq9SkUIqG5o8IJjXQDKg9mLIjAZ7beHMdKIfnrseeIuMIjG3MjE4KBXIoL0HySLN9n4JDGSsAfKFqK8UjOpf9typfMJVlBKlYSmGLac4U3rszr4hIRKxTx-arrrOiKqiyON336pS7WzQOKNBOPrkNa77FoEQE5iVS-QSt9So_HbJX-umq5uKKjNtoCSbiwhfjuIPsRUCda9XxNjLjozd6JGaqnRne7K12cNjsZ4fNbxaszMQKIxg4afmHeo4bmPtB2FGlNzUYPhYdpanQ5wZ8ArfjO0_ZkW_f44XVgc-LRthrBSnY8QtW9bk_xBRIkfZAzTaQe7192VfV86MWD1hd7yaWjF2RnuMJEA5MsbE9R-SdHwXRZg7KaoADqwRKQh6zDh4EjHliF]--></g></svg>