<?xml version="1.0" encoding="us-ascii" standalone="no"?><svg xmlns="http://www.w3.org/2000/svg" xmlns:xlink="http://www.w3.org/1999/xlink" contentStyleType="text/css" height="1724px" preserveAspectRatio="none" style="width:556px;height:1724px;background:#FAFAFA;" version="1.1" viewBox="0 0 556 1724" width="556px" zoomAndPan="magnify"><defs/><g><rect fill="#FAFAFA" height="1724" style="stroke:none;stroke-width:1.0;" width="556" x="0" y="0"/><text fill="#000000" font-family="Helvetica" font-size="14" font-weight="bold" lengthAdjust="spacing" textLength="429" x="59.75" y="27.9951">KW 51 - Vehicle Passenger Load Over Time (Mon-Thu)</text><line style="stroke:#181818;stroke-width:0.5;stroke-dasharray:5.0,5.0;" x1="110" x2="110" y1="89.8906" y2="1549.8047"/><line style="stroke:#181818;stroke-width:0.5;stroke-dasharray:5.0,5.0;" x1="334" x2="334" y1="89.8906" y2="1549.8047"/><rect fill="#E2E2F0" height="46.5938" rx="2.5" ry="2.5" style="stroke:#181818;stroke-width:0.5;" width="77" x="72" y="42.2969"/><text fill="#000000" font-family="Helvetica" font-size="14" lengthAdjust="spacing" textLength="56" x="82.5" y="62.292">Thomas</text><text fill="#000000" font-family="Helvetica" font-size="14" lengthAdjust="spacing" textLength="63" x="79" y="78.5889">(Driver 1)</text><rect fill="#E2E2F0" height="46.5938" rx="2.5" ry="2.5" style="stroke:#181818;stroke-width:0.5;" width="77" x="72" y="1548.8047"/><text fill="#000000" font-family="Helvetica" font-size="14" lengthAdjust="spacing" textLength="56" x="82.5" y="1568.7998">Thomas</text><text fill="#000000" font-family="Helvetica" font-size="14" lengthAdjust="spacing" textLength="63" x="79" y="1585.0967">(Driver 1)</text><rect fill="#E2E2F0" height="46.5938" rx="2.5" ry="2.5" style="stroke:#181818;stroke-width:0.5;" width="77" x="296" y="42.2969"/><text fill="#000000" font-family="Helvetica" font-size="14" lengthAdjust="spacing" textLength="39" x="315" y="62.292">Sarah</text><text fill="#000000" font-family="Helvetica" font-size="14" lengthAdjust="spacing" textLength="63" x="303" y="78.5889">(Driver 2)</text><rect fill="#E2E2F0" height="46.5938" rx="2.5" ry="2.5" style="stroke:#181818;stroke-width:0.5;" width="77" x="296" y="1548.8047"/><text fill="#000000" font-family="Helvetica" font-size="14" lengthAdjust="spacing" textLength="39" x="315" y="1568.7998">Sarah</text><text fill="#000000" font-family="Helvetica" font-size="14" lengthAdjust="spacing" textLength="63" x="303" y="1585.0967">(Driver 2)</text><rect fill="#EEEEEE" height="3" style="stroke:#EEEEEE;stroke-width:1.0;" width="549.5" x="0" y="120.457"/><line style="stroke:#000000;stroke-width:1.0;" x1="0" x2="549.5" y1="120.457" y2="120.457"/><line style="stroke:#000000;stroke-width:1.0;" x1="0" x2="549.5" y1="123.457" y2="123.457"/><rect fill="#EEEEEE" height="23.1328" style="stroke:#000000;stroke-width:2.0;" width="234" x="157.75" y="109.8906"/><text fill="#000000" font-family="Helvetica" font-size="13" font-weight="bold" lengthAdjust="spacing" textLength="215" x="163.75" y="125.9575">Early Morning (04:00 - 07:15)</text><path d="M22,148.0234 L22,173.0234 L198,173.0234 L198,158.0234 L188,148.0234 L22,148.0234 " fill="#FEFFDD" style="stroke:#181818;stroke-width:0.5;"/><path d="M188,148.0234 L188,158.0234 L198,158.0234 L188,148.0234 " fill="#FEFFDD" style="stroke:#181818;stroke-width:0.5;"/><text fill="#000000" font-family="Helvetica" font-size="13" font-weight="bold" lengthAdjust="spacing" textLength="41" x="28" y="165.0903">04:00</text><text fill="#000000" font-family="Helvetica" font-size="13" lengthAdjust="spacing" textLength="110" x="73" y="165.0903">Load: 0 #E0E0E0</text><path d="M246,183.1563 L246,208.1563 L422,208.1563 L422,193.1563 L412,183.1563 L246,183.1563 " fill="#FEFFDD" style="stroke:#181818;stroke-width:0.5;"/><path d="M412,183.1563 L412,193.1563 L422,193.1563 L412,183.1563 " fill="#FEFFDD" style="stroke:#181818;stroke-width:0.5;"/><text fill="#000000" font-family="Helvetica" font-size="13" font-weight="bold" lengthAdjust="spacing" textLength="41" x="252" y="200.2231">04:00</text><text fill="#000000" font-family="Helvetica" font-size="13" lengthAdjust="spacing" textLength="110" x="297" y="200.2231">Load: 0 #E0E0E0</text><line style="stroke:#181818;stroke-width:1.0;" x1="110.5" x2="152.5" y1="234.4219" y2="234.4219"/><line style="stroke:#181818;stroke-width:1.0;" x1="152.5" x2="152.5" y1="234.4219" y2="247.4219"/><line style="stroke:#181818;stroke-width:1.0;" x1="111.5" x2="152.5" y1="247.4219" y2="247.4219"/><polygon fill="#181818" points="121.5,243.4219,111.5,247.4219,121.5,251.4219,117.5,247.4219" style="stroke:#181818;stroke-width:1.0;"/><text fill="#000000" font-family="Helvetica" font-size="13" font-weight="bold" lengthAdjust="spacing" textLength="41" x="117.5" y="229.356">04:12</text><text fill="#000000" font-family="Helvetica" font-size="13" lengthAdjust="spacing" textLength="165" x="162.5" y="229.356">Load: 0 (driving) #FFA726</text><line style="stroke:#181818;stroke-width:1.0;" x1="110.5" x2="152.5" y1="276.5547" y2="276.5547"/><line style="stroke:#181818;stroke-width:1.0;" x1="152.5" x2="152.5" y1="276.5547" y2="289.5547"/><line style="stroke:#181818;stroke-width:1.0;" x1="111.5" x2="152.5" y1="289.5547" y2="289.5547"/><polygon fill="#181818" points="121.5,285.5547,111.5,289.5547,121.5,293.5547,117.5,289.5547" style="stroke:#181818;stroke-width:1.0;"/><text fill="#000000" font-family="Helvetica" font-size="13" font-weight="bold" lengthAdjust="spacing" textLength="41" x="117.5" y="271.4888">04:20</text><text fill="#000000" font-family="Helvetica" font-size="13" lengthAdjust="spacing" textLength="35" x="162.5" y="271.4888">Load:</text><text fill="#000000" font-family="Helvetica" font-size="13" font-weight="bold" lengthAdjust="spacing" textLength="9" x="201.5" y="271.4888">1</text><text fill="#000000" font-family="Helvetica" font-size="13" lengthAdjust="spacing" textLength="63" x="214.5" y="271.4888">#A5D6A7</text><line style="stroke:#181818;stroke-width:1.0;" x1="110.5" x2="152.5" y1="318.6875" y2="318.6875"/><line style="stroke:#181818;stroke-width:1.0;" x1="152.5" x2="152.5" y1="318.6875" y2="331.6875"/><line style="stroke:#181818;stroke-width:1.0;" x1="111.5" x2="152.5" y1="331.6875" y2="331.6875"/><polygon fill="#181818" points="121.5,327.6875,111.5,331.6875,121.5,335.6875,117.5,331.6875" style="stroke:#181818;stroke-width:1.0;"/><text fill="#000000" font-family="Helvetica" font-size="13" font-weight="bold" lengthAdjust="spacing" textLength="41" x="117.5" y="313.6216">04:30</text><text fill="#000000" font-family="Helvetica" font-size="13" lengthAdjust="spacing" textLength="35" x="162.5" y="313.6216">Load:</text><text fill="#000000" font-family="Helvetica" font-size="13" font-weight="bold" lengthAdjust="spacing" textLength="47" x="201.5" y="313.6216">6 MAX</text><text fill="#000000" font-family="Helvetica" font-size="13" lengthAdjust="spacing" textLength="58" x="252.5" y="313.6216">#F44336</text><path d="M7,344.6875 L7,369.6875 L213,369.6875 L213,354.6875 L203,344.6875 L7,344.6875 " fill="#FEFFDD" style="stroke:#181818;stroke-width:0.5;"/><path d="M203,344.6875 L203,354.6875 L213,354.6875 L203,344.6875 " fill="#FEFFDD" style="stroke:#181818;stroke-width:0.5;"/><text fill="#000000" font-family="Helvetica" font-size="13" font-weight="bold" lengthAdjust="spacing" textLength="123" x="13" y="361.7544">6/6 AT CAPACITY</text><text fill="#000000" font-family="Helvetica" font-size="13" lengthAdjust="spacing" textLength="58" x="140" y="361.7544">#F44336</text><line style="stroke:#181818;stroke-width:1.0;" x1="110.5" x2="152.5" y1="395.9531" y2="395.9531"/><line style="stroke:#181818;stroke-width:1.0;" x1="152.5" x2="152.5" y1="395.9531" y2="408.9531"/><line style="stroke:#181818;stroke-width:1.0;" x1="111.5" x2="152.5" y1="408.9531" y2="408.9531"/><polygon fill="#181818" points="121.5,404.9531,111.5,408.9531,121.5,412.9531,117.5,408.9531" style="stroke:#181818;stroke-width:1.0;"/><text fill="#000000" font-family="Helvetica" font-size="13" font-weight="bold" lengthAdjust="spacing" textLength="41" x="117.5" y="390.8872">05:09</text><text fill="#000000" font-family="Helvetica" font-size="13" lengthAdjust="spacing" textLength="35" x="162.5" y="390.8872">Load:</text><text fill="#000000" font-family="Helvetica" font-size="13" font-weight="bold" lengthAdjust="spacing" textLength="9" x="201.5" y="390.8872">1</text><text fill="#000000" font-family="Helvetica" font-size="13" lengthAdjust="spacing" textLength="63" x="214.5" y="390.8872">#A5D6A7</text><line style="stroke:#181818;stroke-width:1.0;" x1="110.5" x2="152.5" y1="438.0859" y2="438.0859"/><line style="stroke:#181818;stroke-width:1.0;" x1="152.5" x2="152.5" y1="438.0859" y2="451.0859"/><line style="stroke:#181818;stroke-width:1.0;" x1="111.5" x2="152.5" y1="451.0859" y2="451.0859"/><polygon fill="#181818" points="121.5,447.0859,111.5,451.0859,121.5,455.0859,117.5,451.0859" style="stroke:#181818;stroke-width:1.0;"/><text fill="#000000" font-family="Helvetica" font-size="13" font-weight="bold" lengthAdjust="spacing" textLength="41" x="117.5" y="433.02">05:37</text><text fill="#000000" font-family="Helvetica" font-size="13" lengthAdjust="spacing" textLength="110" x="162.5" y="433.02">Load: 0 #E0E0E0</text><line style="stroke:#181818;stroke-width:1.0;" x1="110.5" x2="152.5" y1="480.2188" y2="480.2188"/><line style="stroke:#181818;stroke-width:1.0;" x1="152.5" x2="152.5" y1="480.2188" y2="493.2188"/><line style="stroke:#181818;stroke-width:1.0;" x1="111.5" x2="152.5" y1="493.2188" y2="493.2188"/><polygon fill="#181818" points="121.5,489.2188,111.5,493.2188,121.5,497.2188,117.5,493.2188" style="stroke:#181818;stroke-width:1.0;"/><text fill="#000000" font-family="Helvetica" font-size="13" font-weight="bold" lengthAdjust="spacing" textLength="41" x="117.5" y="475.1528">06:11</text><text fill="#000000" font-family="Helvetica" font-size="13" lengthAdjust="spacing" textLength="35" x="162.5" y="475.1528">Load:</text><text fill="#000000" font-family="Helvetica" font-size="13" font-weight="bold" lengthAdjust="spacing" textLength="9" x="201.5" y="475.1528">2</text><text fill="#000000" font-family="Helvetica" font-size="13" lengthAdjust="spacing" textLength="63" x="214.5" y="475.1528">#A5D6A7</text><line style="stroke:#181818;stroke-width:1.0;" x1="110.5" x2="152.5" y1="522.3516" y2="522.3516"/><line style="stroke:#181818;stroke-width:1.0;" x1="152.5" x2="152.5" y1="522.3516" y2="535.3516"/><line style="stroke:#181818;stroke-width:1.0;" x1="111.5" x2="152.5" y1="535.3516" y2="535.3516"/><polygon fill="#181818" points="121.5,531.3516,111.5,535.3516,121.5,539.3516,117.5,535.3516" style="stroke:#181818;stroke-width:1.0;"/><text fill="#000000" font-family="Helvetica" font-size="13" font-weight="bold" lengthAdjust="spacing" textLength="41" x="117.5" y="517.2856">06:45</text><text fill="#000000" font-family="Helvetica" font-size="13" lengthAdjust="spacing" textLength="110" x="162.5" y="517.2856">Load: 0 #E0E0E0</text><line style="stroke:#181818;stroke-width:1.0;" x1="110.5" x2="152.5" y1="564.4844" y2="564.4844"/><line style="stroke:#181818;stroke-width:1.0;" x1="152.5" x2="152.5" y1="564.4844" y2="577.4844"/><line style="stroke:#181818;stroke-width:1.0;" x1="111.5" x2="152.5" y1="577.4844" y2="577.4844"/><polygon fill="#181818" points="121.5,573.4844,111.5,577.4844,121.5,581.4844,117.5,577.4844" style="stroke:#181818;stroke-width:1.0;"/><text fill="#000000" font-family="Helvetica" font-size="13" font-weight="bold" lengthAdjust="spacing" textLength="41" x="117.5" y="559.4185">07:09</text><text fill="#000000" font-family="Helvetica" font-size="13" lengthAdjust="spacing" textLength="35" x="162.5" y="559.4185">Load:</text><text fill="#000000" font-family="Helvetica" font-size="13" font-weight="bold" lengthAdjust="spacing" textLength="9" x="201.5" y="559.4185">2</text><text fill="#000000" font-family="Helvetica" font-size="13" lengthAdjust="spacing" textLength="63" x="214.5" y="559.4185">#A5D6A7</text><line style="stroke:#181818;stroke-width:1.0;" x1="110.5" x2="152.5" y1="606.6172" y2="606.6172"/><line style="stroke:#181818;stroke-width:1.0;" x1="152.5" x2="152.5" y1="606.6172" y2="619.6172"/><line style="stroke:#181818;stroke-width:1.0;" x1="111.5" x2="152.5" y1="619.6172" y2="619.6172"/><polygon fill="#181818" points="121.5,615.6172,111.5,619.6172,121.5,623.6172,117.5,619.6172" style="stroke:#181818;stroke-width:1.0;"/><text fill="#000000" font-family="Helvetica" font-size="13" font-weight="bold" lengthAdjust="spacing" textLength="41" x="117.5" y="601.5513">07:13</text><text fill="#000000" font-family="Helvetica" font-size="13" lengthAdjust="spacing" textLength="110" x="162.5" y="601.5513">Load: 0 #E0E0E0</text><path d="M5,632.6172 L5,657.6172 L217,657.6172 L217,642.6172 L207,632.6172 L5,632.6172 " fill="#FEFFDD" style="stroke:#181818;stroke-width:0.5;"/><path d="M207,632.6172 L207,642.6172 L217,642.6172 L207,632.6172 " fill="#FEFFDD" style="stroke:#181818;stroke-width:0.5;"/><text fill="#000000" font-family="Helvetica" font-size="13" font-weight="bold" lengthAdjust="spacing" textLength="41" x="11" y="649.6841">07:15</text><text fill="#000000" font-family="Helvetica" font-size="13" lengthAdjust="spacing" textLength="146" x="56" y="649.6841">Load: 0 (idle) #E0E0E0</text><rect fill="#EEEEEE" height="3" style="stroke:#EEEEEE;stroke-width:1.0;" width="549.5" x="0" y="683.3164"/><line style="stroke:#000000;stroke-width:1.0;" x1="0" x2="549.5" y1="683.3164" y2="683.3164"/><line style="stroke:#000000;stroke-width:1.0;" x1="0" x2="549.5" y1="686.3164" y2="686.3164"/><rect fill="#EEEEEE" height="23.1328" style="stroke:#000000;stroke-width:2.0;" width="206" x="171.75" y="672.75"/><text fill="#000000" font-family="Helvetica" font-size="13" font-weight="bold" lengthAdjust="spacing" textLength="187" x="177.75" y="688.8169">Afternoon (14:00 - 17:08)</text><line style="stroke:#181818;stroke-width:1.0;" x1="110.5" x2="152.5" y1="727.0156" y2="727.0156"/><line style="stroke:#181818;stroke-width:1.0;" x1="152.5" x2="152.5" y1="727.0156" y2="740.0156"/><line style="stroke:#181818;stroke-width:1.0;" x1="111.5" x2="152.5" y1="740.0156" y2="740.0156"/><polygon fill="#181818" points="121.5,736.0156,111.5,740.0156,121.5,744.0156,117.5,740.0156" style="stroke:#181818;stroke-width:1.0;"/><text fill="#000000" font-family="Helvetica" font-size="13" font-weight="bold" lengthAdjust="spacing" textLength="41" x="117.5" y="721.9497">14:00</text><text fill="#000000" font-family="Helvetica" font-size="13" lengthAdjust="spacing" textLength="165" x="162.5" y="721.9497">Load: 0 (driving) #FFA726</text><line style="stroke:#181818;stroke-width:1.0;" x1="334.5" x2="376.5" y1="769.1484" y2="769.1484"/><line style="stroke:#181818;stroke-width:1.0;" x1="376.5" x2="376.5" y1="769.1484" y2="782.1484"/><line style="stroke:#181818;stroke-width:1.0;" x1="335.5" x2="376.5" y1="782.1484" y2="782.1484"/><polygon fill="#181818" points="345.5,778.1484,335.5,782.1484,345.5,786.1484,341.5,782.1484" style="stroke:#181818;stroke-width:1.0;"/><text fill="#000000" font-family="Helvetica" font-size="13" font-weight="bold" lengthAdjust="spacing" textLength="41" x="341.5" y="764.0825">14:00</text><text fill="#000000" font-family="Helvetica" font-size="13" lengthAdjust="spacing" textLength="35" x="386.5" y="764.0825">Load:</text><text fill="#000000" font-family="Helvetica" font-size="13" font-weight="bold" lengthAdjust="spacing" textLength="9" x="425.5" y="764.0825">1</text><text fill="#000000" font-family="Helvetica" font-size="13" lengthAdjust="spacing" textLength="63" x="438.5" y="764.0825">#A5D6A7</text><line style="stroke:#181818;stroke-width:1.0;" x1="334.5" x2="376.5" y1="811.2813" y2="811.2813"/><line style="stroke:#181818;stroke-width:1.0;" x1="376.5" x2="376.5" y1="811.2813" y2="824.2813"/><line style="stroke:#181818;stroke-width:1.0;" x1="335.5" x2="376.5" y1="824.2813" y2="824.2813"/><polygon fill="#181818" points="345.5,820.2813,335.5,824.2813,345.5,828.2813,341.5,824.2813" style="stroke:#181818;stroke-width:1.0;"/><text fill="#000000" font-family="Helvetica" font-size="13" font-weight="bold" lengthAdjust="spacing" textLength="41" x="341.5" y="806.2153">14:29</text><text fill="#000000" font-family="Helvetica" font-size="13" lengthAdjust="spacing" textLength="110" x="386.5" y="806.2153">Load: 0 #E0E0E0</text><line style="stroke:#181818;stroke-width:1.0;" x1="110.5" x2="152.5" y1="853.4141" y2="853.4141"/><line style="stroke:#181818;stroke-width:1.0;" x1="152.5" x2="152.5" y1="853.4141" y2="866.4141"/><line style="stroke:#181818;stroke-width:1.0;" x1="111.5" x2="152.5" y1="866.4141" y2="866.4141"/><polygon fill="#181818" points="121.5,862.4141,111.5,866.4141,121.5,870.4141,117.5,866.4141" style="stroke:#181818;stroke-width:1.0;"/><text fill="#000000" font-family="Helvetica" font-size="13" font-weight="bold" lengthAdjust="spacing" textLength="41" x="117.5" y="848.3481">14:29</text><text fill="#000000" font-family="Helvetica" font-size="13" lengthAdjust="spacing" textLength="35" x="162.5" y="848.3481">Load:</text><text fill="#000000" font-family="Helvetica" font-size="13" font-weight="bold" lengthAdjust="spacing" textLength="9" x="201.5" y="848.3481">5</text><text fill="#000000" font-family="Helvetica" font-size="13" lengthAdjust="spacing" textLength="60" x="214.5" y="848.3481">#81C784</text><line style="stroke:#181818;stroke-width:1.0;" x1="110.5" x2="152.5" y1="895.5469" y2="895.5469"/><line style="stroke:#181818;stroke-width:1.0;" x1="152.5" x2="152.5" y1="895.5469" y2="908.5469"/><line style="stroke:#181818;stroke-width:1.0;" x1="111.5" x2="152.5" y1="908.5469" y2="908.5469"/><polygon fill="#181818" points="121.5,904.5469,111.5,908.5469,121.5,912.5469,117.5,908.5469" style="stroke:#181818;stroke-width:1.0;"/><text fill="#000000" font-family="Helvetica" font-size="13" font-weight="bold" lengthAdjust="spacing" textLength="41" x="117.5" y="890.481">15:00</text><text fill="#000000" font-family="Helvetica" font-size="13" lengthAdjust="spacing" textLength="110" x="162.5" y="890.481">Load: 0 #E0E0E0</text><line style="stroke:#181818;stroke-width:1.0;" x1="110.5" x2="152.5" y1="937.6797" y2="937.6797"/><line style="stroke:#181818;stroke-width:1.0;" x1="152.5" x2="152.5" y1="937.6797" y2="950.6797"/><line style="stroke:#181818;stroke-width:1.0;" x1="111.5" x2="152.5" y1="950.6797" y2="950.6797"/><polygon fill="#181818" points="121.5,946.6797,111.5,950.6797,121.5,954.6797,117.5,950.6797" style="stroke:#181818;stroke-width:1.0;"/><text fill="#000000" font-family="Helvetica" font-size="13" font-weight="bold" lengthAdjust="spacing" textLength="41" x="117.5" y="932.6138">15:34</text><text fill="#000000" font-family="Helvetica" font-size="13" lengthAdjust="spacing" textLength="35" x="162.5" y="932.6138">Load:</text><text fill="#000000" font-family="Helvetica" font-size="13" font-weight="bold" lengthAdjust="spacing" textLength="9" x="201.5" y="932.6138">1</text><text fill="#000000" font-family="Helvetica" font-size="13" lengthAdjust="spacing" textLength="63" x="214.5" y="932.6138">#A5D6A7</text><line style="stroke:#181818;stroke-width:1.0;" x1="110.5" x2="152.5" y1="979.8125" y2="979.8125"/><line style="stroke:#181818;stroke-width:1.0;" x1="152.5" x2="152.5" y1="979.8125" y2="992.8125"/><line style="stroke:#181818;stroke-width:1.0;" x1="111.5" x2="152.5" y1="992.8125" y2="992.8125"/><polygon fill="#181818" points="121.5,988.8125,111.5,992.8125,121.5,996.8125,117.5,992.8125" style="stroke:#181818;stroke-width:1.0;"/><text fill="#000000" font-family="Helvetica" font-size="13" font-weight="bold" lengthAdjust="spacing" textLength="41" x="117.5" y="974.7466">16:08</text><text fill="#000000" font-family="Helvetica" font-size="13" lengthAdjust="spacing" textLength="110" x="162.5" y="974.7466">Load: 0 #E0E0E0</text><line style="stroke:#181818;stroke-width:1.0;" x1="110.5" x2="152.5" y1="1021.9453" y2="1021.9453"/><line style="stroke:#181818;stroke-width:1.0;" x1="152.5" x2="152.5" y1="1021.9453" y2="1034.9453"/><line style="stroke:#181818;stroke-width:1.0;" x1="111.5" x2="152.5" y1="1034.9453" y2="1034.9453"/><polygon fill="#181818" points="121.5,1030.9453,111.5,1034.9453,121.5,1038.9453,117.5,1034.9453" style="stroke:#181818;stroke-width:1.0;"/><text fill="#000000" font-family="Helvetica" font-size="13" font-weight="bold" lengthAdjust="spacing" textLength="41" x="117.5" y="1016.8794">16:38</text><text fill="#000000" font-family="Helvetica" font-size="13" lengthAdjust="spacing" textLength="35" x="162.5" y="1016.8794">Load:</text><text fill="#000000" font-family="Helvetica" font-size="13" font-weight="bold" lengthAdjust="spacing" textLength="9" x="201.5" y="1016.8794">2</text><text fill="#000000" font-family="Helvetica" font-size="13" lengthAdjust="spacing" textLength="63" x="214.5" y="1016.8794">#A5D6A7</text><line style="stroke:#181818;stroke-width:1.0;" x1="110.5" x2="152.5" y1="1064.0781" y2="1064.0781"/><line style="stroke:#181818;stroke-width:1.0;" x1="152.5" x2="152.5" y1="1064.0781" y2="1077.0781"/><line style="stroke:#181818;stroke-width:1.0;" x1="111.5" x2="152.5" y1="1077.0781" y2="1077.0781"/><polygon fill="#181818" points="121.5,1073.0781,111.5,1077.0781,121.5,1081.0781,117.5,1077.0781" style="stroke:#181818;stroke-width:1.0;"/><text fill="#000000" font-family="Helvetica" font-size="13" font-weight="bold" lengthAdjust="spacing" textLength="41" x="117.5" y="1059.0122">17:08</text><text fill="#000000" font-family="Helvetica" font-size="13" lengthAdjust="spacing" textLength="156" x="162.5" y="1059.0122">Load: 0 (done) #E0E0E0</text><rect fill="#EEEEEE" height="3" style="stroke:#EEEEEE;stroke-width:1.0;" width="549.5" x="0" y="1105.6445"/><line style="stroke:#000000;stroke-width:1.0;" x1="0" x2="549.5" y1="1105.6445" y2="1105.6445"/><line style="stroke:#000000;stroke-width:1.0;" x1="0" x2="549.5" y1="1108.6445" y2="1108.6445"/><rect fill="#EEEEEE" height="23.1328" style="stroke:#000000;stroke-width:2.0;" width="191" x="179.25" y="1095.0781"/><text fill="#000000" font-family="Helvetica" font-size="13" font-weight="bold" lengthAdjust="spacing" textLength="172" x="185.25" y="1111.145">Evening (21:30 - 22:52)</text><path d="M46,1133.2109 L46,1158.2109 L174,1158.2109 L174,1143.2109 L164,1133.2109 L46,1133.2109 " fill="#FEFFDD" style="stroke:#181818;stroke-width:0.5;"/><path d="M164,1133.2109 L164,1143.2109 L174,1143.2109 L164,1133.2109 " fill="#FEFFDD" style="stroke:#181818;stroke-width:0.5;"/><text fill="#000000" font-family="Helvetica" font-size="13" lengthAdjust="spacing" textLength="107" x="52" y="1150.2778">Done for the day</text><line style="stroke:#181818;stroke-width:1.0;" x1="334.5" x2="376.5" y1="1184.4766" y2="1184.4766"/><line style="stroke:#181818;stroke-width:1.0;" x1="376.5" x2="376.5" y1="1184.4766" y2="1197.4766"/><line style="stroke:#181818;stroke-width:1.0;" x1="335.5" x2="376.5" y1="1197.4766" y2="1197.4766"/><polygon fill="#181818" points="345.5,1193.4766,335.5,1197.4766,345.5,1201.4766,341.5,1197.4766" style="stroke:#181818;stroke-width:1.0;"/><text fill="#000000" font-family="Helvetica" font-size="13" font-weight="bold" lengthAdjust="spacing" textLength="41" x="341.5" y="1179.4106">21:30</text><text fill="#000000" font-family="Helvetica" font-size="13" lengthAdjust="spacing" textLength="35" x="386.5" y="1179.4106">Load:</text><text fill="#000000" font-family="Helvetica" font-size="13" font-weight="bold" lengthAdjust="spacing" textLength="9" x="425.5" y="1179.4106">2</text><text fill="#000000" font-family="Helvetica" font-size="13" lengthAdjust="spacing" textLength="63" x="438.5" y="1179.4106">#A5D6A7</text><line style="stroke:#181818;stroke-width:1.0;" x1="334.5" x2="376.5" y1="1226.6094" y2="1226.6094"/><line style="stroke:#181818;stroke-width:1.0;" x1="376.5" x2="376.5" y1="1226.6094" y2="1239.6094"/><line style="stroke:#181818;stroke-width:1.0;" x1="335.5" x2="376.5" y1="1239.6094" y2="1239.6094"/><polygon fill="#181818" points="345.5,1235.6094,335.5,1239.6094,345.5,1243.6094,341.5,1239.6094" style="stroke:#181818;stroke-width:1.0;"/><text fill="#000000" font-family="Helvetica" font-size="13" font-weight="bold" lengthAdjust="spacing" textLength="41" x="341.5" y="1221.5435">21:34</text><text fill="#000000" font-family="Helvetica" font-size="13" lengthAdjust="spacing" textLength="110" x="386.5" y="1221.5435">Load: 0 #E0E0E0</text><line style="stroke:#181818;stroke-width:1.0;" x1="334.5" x2="376.5" y1="1268.7422" y2="1268.7422"/><line style="stroke:#181818;stroke-width:1.0;" x1="376.5" x2="376.5" y1="1268.7422" y2="1281.7422"/><line style="stroke:#181818;stroke-width:1.0;" x1="335.5" x2="376.5" y1="1281.7422" y2="1281.7422"/><polygon fill="#181818" points="345.5,1277.7422,335.5,1281.7422,345.5,1285.7422,341.5,1281.7422" style="stroke:#181818;stroke-width:1.0;"/><text fill="#000000" font-family="Helvetica" font-size="13" font-weight="bold" lengthAdjust="spacing" textLength="41" x="341.5" y="1263.6763">21:36</text><text fill="#000000" font-family="Helvetica" font-size="13" lengthAdjust="spacing" textLength="35" x="386.5" y="1263.6763">Load:</text><text fill="#000000" font-family="Helvetica" font-size="13" font-weight="bold" lengthAdjust="spacing" textLength="9" x="425.5" y="1263.6763">1</text><text fill="#000000" font-family="Helvetica" font-size="13" lengthAdjust="spacing" textLength="63" x="438.5" y="1263.6763">#A5D6A7</text><line style="stroke:#181818;stroke-width:1.0;" x1="334.5" x2="376.5" y1="1310.875" y2="1310.875"/><line style="stroke:#181818;stroke-width:1.0;" x1="376.5" x2="376.5" y1="1310.875" y2="1323.875"/><line style="stroke:#181818;stroke-width:1.0;" x1="335.5" x2="376.5" y1="1323.875" y2="1323.875"/><polygon fill="#181818" points="345.5,1319.875,335.5,1323.875,345.5,1327.875,341.5,1323.875" style="stroke:#181818;stroke-width:1.0;"/><text fill="#000000" font-family="Helvetica" font-size="13" font-weight="bold" lengthAdjust="spacing" textLength="41" x="341.5" y="1305.8091">21:40</text><text fill="#000000" font-family="Helvetica" font-size="13" lengthAdjust="spacing" textLength="110" x="386.5" y="1305.8091">Load: 0 #E0E0E0</text><line style="stroke:#181818;stroke-width:1.0;" x1="334.5" x2="376.5" y1="1353.0078" y2="1353.0078"/><line style="stroke:#181818;stroke-width:1.0;" x1="376.5" x2="376.5" y1="1353.0078" y2="1366.0078"/><line style="stroke:#181818;stroke-width:1.0;" x1="335.5" x2="376.5" y1="1366.0078" y2="1366.0078"/><polygon fill="#181818" points="345.5,1362.0078,335.5,1366.0078,345.5,1370.0078,341.5,1366.0078" style="stroke:#181818;stroke-width:1.0;"/><text fill="#000000" font-family="Helvetica" font-size="13" font-weight="bold" lengthAdjust="spacing" textLength="41" x="341.5" y="1347.9419">22:16</text><text fill="#000000" font-family="Helvetica" font-size="13" lengthAdjust="spacing" textLength="35" x="386.5" y="1347.9419">Load:</text><text fill="#000000" font-family="Helvetica" font-size="13" font-weight="bold" lengthAdjust="spacing" textLength="9" x="425.5" y="1347.9419">1</text><text fill="#000000" font-family="Helvetica" font-size="13" lengthAdjust="spacing" textLength="63" x="438.5" y="1347.9419">#A5D6A7</text><line style="stroke:#181818;stroke-width:1.0;" x1="334.5" x2="376.5" y1="1395.1406" y2="1395.1406"/><line style="stroke:#181818;stroke-width:1.0;" x1="376.5" x2="376.5" y1="1395.1406" y2="1408.1406"/><line style="stroke:#181818;stroke-width:1.0;" x1="335.5" x2="376.5" y1="1408.1406" y2="1408.1406"/><polygon fill="#181818" points="345.5,1404.1406,335.5,1408.1406,345.5,1412.1406,341.5,1408.1406" style="stroke:#181818;stroke-width:1.0;"/><text fill="#000000" font-family="Helvetica" font-size="13" font-weight="bold" lengthAdjust="spacing" textLength="41" x="341.5" y="1390.0747">22:52</text><text fill="#000000" font-family="Helvetica" font-size="13" lengthAdjust="spacing" textLength="156" x="386.5" y="1390.0747">Load: 0 (done) #E0E0E0</text><rect fill="#EEEEEE" height="3" style="stroke:#EEEEEE;stroke-width:1.0;" width="549.5" x="0" y="1436.707"/><line style="stroke:#000000;stroke-width:1.0;" x1="0" x2="549.5" y1="1436.707" y2="1436.707"/><line style="stroke:#000000;stroke-width:1.0;" x1="0" x2="549.5" y1="1439.707" y2="1439.707"/><rect fill="#EEEEEE" height="23.1328" style="stroke:#000000;stroke-width:2.0;" width="74" x="237.75" y="1426.1406"/><text fill="#000000" font-family="Helvetica" font-size="13" font-weight="bold" lengthAdjust="spacing" textLength="55" x="243.75" y="1442.2075">Legend</text><path d="M40,1464.2734 L40,1534.2734 L405,1534.2734 L405,1474.2734 L395,1464.2734 L40,1464.2734 " fill="#FEFFDD" style="stroke:#181818;stroke-width:0.5;"/><path d="M395,1464.2734 L395,1474.2734 L405,1474.2734 L395,1464.2734 " fill="#FEFFDD" style="stroke:#181818;stroke-width:0.5;"/><text fill="#000000" font-family="Helvetica" font-size="13" lengthAdjust="spacing" textLength="344" x="46" y="1481.3403">Peak: Thomas at 6/6 (04:30-05:09) during FR-3 merge</text><text fill="#000000" font-family="Helvetica" font-size="13" lengthAdjust="spacing" textLength="301" x="46" y="1496.4731">Thomas avg: 2.8 pax/segment (38% utilization)</text><text fill="#000000" font-family="Helvetica" font-size="13" lengthAdjust="spacing" textLength="288" x="46" y="1511.606">Sarah avg: 1.3 pax/segment (21% utilization)</text><text fill="#000000" font-family="Helvetica" font-size="13" lengthAdjust="spacing" textLength="281" x="46" y="1526.7388">Fleet avg: 2.3 pax/segment (38% utilization)</text><rect fill="none" height="95.4844" id="_legend" rx="7.5" ry="7.5" style="stroke:#000000;stroke-width:1.0;" width="187" x="349.5" y="1609.3984"/><text fill="#000000" font-family="Helvetica" font-size="14" font-weight="bold" lengthAdjust="spacing" textLength="42" x="359.5" y="1629.3936">Color</text><text fill="#000000" font-family="Helvetica" font-size="14" font-weight="bold" lengthAdjust="spacing" textLength="85" x="411.5" y="1629.3936">Load Level</text><rect fill="#F44336" height="16.2969" style="stroke:none;stroke-width:1.0;" width="52" x="354.5" y="1632.6953"/><text fill="#000000" font-family="Helvetica" font-size="14" lengthAdjust="spacing" textLength="8" x="354.5" y="1645.6904">&#160;&#160;</text><text fill="#000000" font-family="Helvetica" font-size="14" lengthAdjust="spacing" textLength="117" x="410.5" y="1645.6904">6/6 AT CAPACITY</text><rect fill="#81C784" height="16.2969" style="stroke:none;stroke-width:1.0;" width="52" x="354.5" y="1648.9922"/><text fill="#000000" font-family="Helvetica" font-size="14" lengthAdjust="spacing" textLength="8" x="354.5" y="1661.9873">&#160;&#160;</text><text fill="#000000" font-family="Helvetica" font-size="14" lengthAdjust="spacing" textLength="68" x="410.5" y="1661.9873">5/6 Heavy</text><rect fill="#A5D6A7" height="16.2969" style="stroke:none;stroke-width:1.0;" width="52" x="354.5" y="1665.2891"/><text fill="#000000" font-family="Helvetica" font-size="14" lengthAdjust="spacing" textLength="8" x="354.5" y="1678.2842">&#160;&#160;</text><text fill="#000000" font-family="Helvetica" font-size="14" lengthAdjust="spacing" textLength="74" x="410.5" y="1678.2842">1-2/6 Light</text><rect fill="#E0E0E0" height="16.2969" style="stroke:none;stroke-width:1.0;" width="52" x="354.5" y="1681.5859"/><text fill="#000000" font-family="Helvetica" font-size="14" lengthAdjust="spacing" textLength="8" x="354.5" y="1694.5811">&#160;&#160;</text><text fill="#000000" font-family="Helvetica" font-size="14" lengthAdjust="spacing" textLength="70" x="410.5" y="1694.5811">0/6 Empty</text><line style="stroke:#000000;stroke-width:1.0;" x1="354.5" x2="531.5" y1="1616.3984" y2="1616.3984"/><line style="stroke:#000000;stroke-width:1.0;" x1="354.5" x2="531.5" y1="1632.6953" y2="1632.6953"/><line style="stroke:#000000;stroke-width:1.0;" x1="354.5" x2="531.5" y1="1648.9922" y2="1648.9922"/><line style="stroke:#000000;stroke-width:1.0;" x1="354.5" x2="531.5" y1="1665.2891" y2="1665.2891"/><line style="stroke:#000000;stroke-width:1.0;" x1="354.5" x2="531.5" y1="1681.5859" y2="1681.5859"/><line style="stroke:#000000;stroke-width:1.0;" x1="354.5" x2="531.5" y1="1697.8828" y2="1697.8828"/><line style="stroke:#000000;stroke-width:1.0;" x1="354.5" x2="354.5" y1="1616.3984" y2="1697.8828"/><line style="stroke:#000000;stroke-width:1.0;" x1="406.5" x2="406.5" y1="1616.3984" y2="1697.8828"/><line style="stroke:#000000;stroke-width:1.0;" x1="531.5" x2="531.5" y1="1616.3984" y2="1697.8828"/><!--SRC=[ZPNRRfj048RlUOfHh4eOrGdBoGwABI77LghQRLIZ7gJURCm4e-35XRLLLtdu3X37G9mGSRDel_ttdmD3zX293K_v6kxuyY5Cawq8nacSfD2PUlcZPCz4WFTy6yjf8kGNlaQumNY7Cbho2fFXdosA9SunotY8NXo50fOe9AQA8YCP8tp-0JQ37dp7LRIazrkUPIX2J66My02-xcZbHwIlpXFHyrVRhgAGE5qKRRYGSEQlaZNFVWlrEeroc7NFW6VWrwa5-LaT8QE45eeo7CA4f_4Uvaag8X62gbkkhfCZlUyokml3eQA8H28aXHLmGTCAHDCAYoxeq9de-LFX5czoYW-zqL6B6HL63SWY6UbIpgTUtt0Qi74Kr3H6wuvdNpjUlu6PLSo1kVSpHwUMPPfE8vwhkv5puO3dmzYxzSQV_5zN5tUZPxYgQxlwvJkkjrspVoBiAkAuZ5MKZ5UK7DUoMvJwTK-lAL4rpJTBTkIgDwfH46FtM3dg5- -U-bSaYG2LFVKA8nE3ibSgTx96-L-MTf73YnDmFRTrpBXiQQawesbvF9q16_S7LWspJtTd7J6jze8pXy9lKN9SSz1UfYAHjPGbef7-oGxB3zLWrEMKVCDmRUFKXtfDP-6UffTS8GHyhrGJMPn-nL03iqw4ra2SzieHPkajIeRBtgEK1_nsacOOeWYAdCJbCet2bLG07eTGZdHQ52DsXZkCuJ7VkdhwvaUqXiPCE11b7nM4JSGDyjt-i5TQBVPOpw3TMNxfORUqL-pgj3TPRsH-aioL5clb-qZ36U0M-OCBvOW7BWjFQZ7TUiKiwaAmJVDcc7xhcR36D4GwTU1teGl6-G0s_Ez5Xk6QVZoWceCFi9LH7FtZCaf4b_ZYvr3YxDoiumPxWKzZH7bGDrlKyzJdOId_0G00]--></g></svg>