<?xml version="1.0" encoding="us-ascii" standalone="no"?><svg xmlns="http://www.w3.org/2000/svg" xmlns:xlink="http://www.w3.org/1999/xlink" contentStyleType="text/css" height="1517px" preserveAspectRatio="none" style="width:529px;height:1517px;background:#FAFAFA;" version="1.1" viewBox="0 0 529 1517" width="529px" zoomAndPan="magnify"><defs/><g><rect fill="#FAFAFA" height="1517" style="stroke:none;stroke-width:1.0;" width="529" x="0" y="0"/><text fill="#000000" font-family="Helvetica" font-size="14" font-weight="bold" lengthAdjust="spacing" textLength="383" x="69" y="27.9951">KW 51 Friday - Compressed Afternoon Schedule</text><text fill="#000000" font-family="Helvetica" font-size="14" font-weight="bold" lengthAdjust="spacing" textLength="393" x="64" y="44.292">Chep 13:00 + Orion 12:45 overlap = capacity risk</text><line style="stroke:#181818;stroke-width:0.5;stroke-dasharray:5.0,5.0;" x1="170" x2="170" y1="106.1875" y2="1309.5"/><line style="stroke:#181818;stroke-width:0.5;stroke-dasharray:5.0,5.0;" x1="420" x2="420" y1="106.1875" y2="1309.5"/><rect fill="#E2E2F0" height="46.5938" rx="2.5" ry="2.5" style="stroke:#181818;stroke-width:0.5;" width="77" x="132" y="58.5938"/><text fill="#000000" font-family="Helvetica" font-size="14" lengthAdjust="spacing" textLength="56" x="142.5" y="78.5889">Thomas</text><text fill="#000000" font-family="Helvetica" font-size="14" lengthAdjust="spacing" textLength="63" x="139" y="94.8857">(Driver 1)</text><rect fill="#E2E2F0" height="46.5938" rx="2.5" ry="2.5" style="stroke:#181818;stroke-width:0.5;" width="77" x="132" y="1308.5"/><text fill="#000000" font-family="Helvetica" font-size="14" lengthAdjust="spacing" textLength="56" x="142.5" y="1328.4951">Thomas</text><text fill="#000000" font-family="Helvetica" font-size="14" lengthAdjust="spacing" textLength="63" x="139" y="1344.792">(Driver 1)</text><rect fill="#E2E2F0" height="46.5938" rx="2.5" ry="2.5" style="stroke:#181818;stroke-width:0.5;" width="77" x="382" y="58.5938"/><text fill="#000000" font-family="Helvetica" font-size="14" lengthAdjust="spacing" textLength="39" x="401" y="78.5889">Sarah</text><text fill="#000000" font-family="Helvetica" font-size="14" lengthAdjust="spacing" textLength="63" x="389" y="94.8857">(Driver 2)</text><rect fill="#E2E2F0" height="46.5938" rx="2.5" ry="2.5" style="stroke:#181818;stroke-width:0.5;" width="77" x="382" y="1308.5"/><text fill="#000000" font-family="Helvetica" font-size="14" lengthAdjust="spacing" textLength="39" x="401" y="1328.4951">Sarah</text><text fill="#000000" font-family="Helvetica" font-size="14" lengthAdjust="spacing" textLength="63" x="389" y="1344.792">(Driver 2)</text><rect fill="#EEEEEE" height="3" style="stroke:#EEEEEE;stroke-width:1.0;" width="522" x="0" y="136.7539"/><line style="stroke:#000000;stroke-width:1.0;" x1="0" x2="522" y1="136.7539" y2="136.7539"/><line style="stroke:#000000;stroke-width:1.0;" x1="0" x2="522" y1="139.7539" y2="139.7539"/><rect fill="#EEEEEE" height="23.1328" style="stroke:#000000;stroke-width:2.0;" width="225" x="148.5" y="126.1875"/><text fill="#000000" font-family="Helvetica" font-size="13" font-weight="bold" lengthAdjust="spacing" textLength="206" x="154.5" y="142.2544">Morning (same as Mon-Thu)</text><path d="M51,164.3203 L51,204.3203 L289,204.3203 L289,174.3203 L279,164.3203 L51,164.3203 " fill="#FEFFDD" style="stroke:#181818;stroke-width:0.5;"/><path d="M279,164.3203 L279,174.3203 L289,174.3203 L279,164.3203 " fill="#FEFFDD" style="stroke:#181818;stroke-width:0.5;"/><text fill="#000000" font-family="Helvetica" font-size="13" font-weight="bold" lengthAdjust="spacing" textLength="97" x="57" y="181.3872">04:12 - 07:15</text><text fill="#000000" font-family="Helvetica" font-size="13" lengthAdjust="spacing" textLength="116" x="158" y="181.3872">Same as Mon-Thu</text><text fill="#000000" font-family="Helvetica" font-size="13" lengthAdjust="spacing" textLength="195" x="57" y="196.52">3h 3m active driving #B0BEC5</text><rect fill="#EEEEEE" height="3" style="stroke:#EEEEEE;stroke-width:1.0;" width="522" x="0" y="230.1523"/><line style="stroke:#000000;stroke-width:1.0;" x1="0" x2="522" y1="230.1523" y2="230.1523"/><line style="stroke:#000000;stroke-width:1.0;" x1="0" x2="522" y1="233.1523" y2="233.1523"/><rect fill="#EEEEEE" height="23.1328" style="stroke:#000000;stroke-width:2.0;" width="62" x="230" y="219.5859"/><text fill="#000000" font-family="Helvetica" font-size="13" font-weight="bold" lengthAdjust="spacing" textLength="43" x="236" y="235.6528">Break</text><path d="M91,257.7188 L91,297.7188 L250,297.7188 L250,267.7188 L240,257.7188 L91,257.7188 " fill="#FEFFDD" style="stroke:#181818;stroke-width:0.5;"/><path d="M240,257.7188 L240,267.7188 L250,267.7188 L240,257.7188 " fill="#FEFFDD" style="stroke:#181818;stroke-width:0.5;"/><text fill="#000000" font-family="Helvetica" font-size="13" font-weight="bold" lengthAdjust="spacing" textLength="97" x="97" y="274.7856">07:15 - 12:40</text><text fill="#000000" font-family="Helvetica" font-size="13" lengthAdjust="spacing" textLength="37" x="198" y="274.7856">Break</text><text fill="#000000" font-family="Helvetica" font-size="13" lengthAdjust="spacing" textLength="138" x="97" y="289.9185">5h 25m idle #E0E0E0</text><rect fill="#EEEEEE" height="3" style="stroke:#EEEEEE;stroke-width:1.0;" width="522" x="0" y="323.5508"/><line style="stroke:#000000;stroke-width:1.0;" x1="0" x2="522" y1="323.5508" y2="323.5508"/><line style="stroke:#000000;stroke-width:1.0;" x1="0" x2="522" y1="326.5508" y2="326.5508"/><rect fill="#EEEEEE" height="23.1328" style="stroke:#000000;stroke-width:2.0;" width="217" x="152.5" y="312.9844"/><text fill="#000000" font-family="Helvetica" font-size="13" font-weight="bold" lengthAdjust="spacing" textLength="198" x="158.5" y="329.0513">Afternoon - CAPACITY RISK</text><line style="stroke:#181818;stroke-width:1.0;" x1="170.5" x2="212.5" y1="382.3828" y2="382.3828"/><line style="stroke:#181818;stroke-width:1.0;" x1="212.5" x2="212.5" y1="382.3828" y2="395.3828"/><line style="stroke:#181818;stroke-width:1.0;" x1="171.5" x2="212.5" y1="395.3828" y2="395.3828"/><polygon fill="#181818" points="181.5,391.3828,171.5,395.3828,181.5,399.3828,177.5,395.3828" style="stroke:#181818;stroke-width:1.0;"/><text fill="#000000" font-family="Helvetica" font-size="13" font-weight="bold" lengthAdjust="spacing" textLength="41" x="177.5" y="362.1841">12:40</text><text fill="#000000" font-family="Helvetica" font-size="13" lengthAdjust="spacing" textLength="122" x="222.5" y="362.1841">Drive HUB to CHEP</text><text fill="#000000" font-family="Helvetica" font-size="13" lengthAdjust="spacing" textLength="106" x="208" y="377.3169">29 min #FFA726</text><line style="stroke:#181818;stroke-width:1.0;" x1="170.5" x2="212.5" y1="439.6484" y2="439.6484"/><line style="stroke:#181818;stroke-width:1.0;" x1="212.5" x2="212.5" y1="439.6484" y2="452.6484"/><line style="stroke:#181818;stroke-width:1.0;" x1="171.5" x2="212.5" y1="452.6484" y2="452.6484"/><polygon fill="#181818" points="181.5,448.6484,171.5,452.6484,181.5,456.6484,177.5,452.6484" style="stroke:#181818;stroke-width:1.0;"/><text fill="#000000" font-family="Helvetica" font-size="13" font-weight="bold" lengthAdjust="spacing" textLength="41" x="177.5" y="419.4497">13:09</text><text fill="#000000" font-family="Helvetica" font-size="13" lengthAdjust="spacing" textLength="129" x="222.5" y="419.4497">Pickup CHEP (5 pax)</text><text fill="#000000" font-family="Helvetica" font-size="13" lengthAdjust="spacing" textLength="110" x="209.5" y="434.5825">10 min #66BB6A</text><line style="stroke:#181818;stroke-width:1.0;" x1="170.5" x2="212.5" y1="496.9141" y2="496.9141"/><line style="stroke:#181818;stroke-width:1.0;" x1="212.5" x2="212.5" y1="496.9141" y2="509.9141"/><line style="stroke:#181818;stroke-width:1.0;" x1="171.5" x2="212.5" y1="509.9141" y2="509.9141"/><polygon fill="#181818" points="181.5,505.9141,171.5,509.9141,181.5,513.9141,177.5,509.9141" style="stroke:#181818;stroke-width:1.0;"/><text fill="#000000" font-family="Helvetica" font-size="13" font-weight="bold" lengthAdjust="spacing" textLength="41" x="177.5" y="476.7153">13:19</text><text fill="#000000" font-family="Helvetica" font-size="13" lengthAdjust="spacing" textLength="134" x="222.5" y="476.7153">Drive CHEP to ORION</text><text fill="#000000" font-family="Helvetica" font-size="13" lengthAdjust="spacing" textLength="98" x="218" y="491.8481">1 min #FFA726</text><line style="stroke:#181818;stroke-width:1.0;" x1="170.5" x2="212.5" y1="554.1797" y2="554.1797"/><line style="stroke:#181818;stroke-width:1.0;" x1="212.5" x2="212.5" y1="554.1797" y2="567.1797"/><line style="stroke:#181818;stroke-width:1.0;" x1="171.5" x2="212.5" y1="567.1797" y2="567.1797"/><polygon fill="#181818" points="181.5,563.1797,171.5,567.1797,181.5,571.1797,177.5,567.1797" style="stroke:#181818;stroke-width:1.0;"/><text fill="#000000" font-family="Helvetica" font-size="13" font-weight="bold" lengthAdjust="spacing" textLength="41" x="177.5" y="533.981">13:20</text><text fill="#000000" font-family="Helvetica" font-size="13" lengthAdjust="spacing" textLength="135" x="222.5" y="533.981">Pickup ORION (2 pax)</text><text fill="#000000" font-family="Helvetica" font-size="13" lengthAdjust="spacing" textLength="102" x="216.5" y="549.1138">4 min #66BB6A</text><path d="M5,580.1797 L5,605.1797 L337,605.1797 L337,590.1797 L327,580.1797 L5,580.1797 " fill="#FEFFDD" style="stroke:#181818;stroke-width:0.5;"/><path d="M327,580.1797 L327,590.1797 L337,590.1797 L327,580.1797 " fill="#FEFFDD" style="stroke:#181818;stroke-width:0.5;"/><text fill="#000000" font-family="Helvetica" font-size="13" font-weight="bold" lengthAdjust="spacing" textLength="249" x="11" y="597.2466">7 PASSENGERS - OVER CAPACITY!</text><text fill="#000000" font-family="Helvetica" font-size="13" lengthAdjust="spacing" textLength="58" x="264" y="597.2466">#F44336</text><line style="stroke:#181818;stroke-width:1.0;" x1="170.5" x2="212.5" y1="646.5781" y2="646.5781"/><line style="stroke:#181818;stroke-width:1.0;" x1="212.5" x2="212.5" y1="646.5781" y2="659.5781"/><line style="stroke:#181818;stroke-width:1.0;" x1="171.5" x2="212.5" y1="659.5781" y2="659.5781"/><polygon fill="#181818" points="181.5,655.5781,171.5,659.5781,181.5,663.5781,177.5,659.5781" style="stroke:#181818;stroke-width:1.0;"/><text fill="#000000" font-family="Helvetica" font-size="13" font-weight="bold" lengthAdjust="spacing" textLength="41" x="177.5" y="626.3794">13:24</text><text fill="#000000" font-family="Helvetica" font-size="13" lengthAdjust="spacing" textLength="128" x="222.5" y="626.3794">Drive ORION to HUB</text><text fill="#000000" font-family="Helvetica" font-size="13" font-weight="bold" lengthAdjust="spacing" textLength="59" x="354.5" y="626.3794">(7 pax!)</text><text fill="#000000" font-family="Helvetica" font-size="13" lengthAdjust="spacing" textLength="106" x="242.5" y="641.5122">28 min #F44336</text><line style="stroke:#181818;stroke-width:1.0;" x1="170.5" x2="212.5" y1="703.8438" y2="703.8438"/><line style="stroke:#181818;stroke-width:1.0;" x1="212.5" x2="212.5" y1="703.8438" y2="716.8438"/><line style="stroke:#181818;stroke-width:1.0;" x1="171.5" x2="212.5" y1="716.8438" y2="716.8438"/><polygon fill="#181818" points="181.5,712.8438,171.5,716.8438,181.5,720.8438,177.5,716.8438" style="stroke:#181818;stroke-width:1.0;"/><text fill="#000000" font-family="Helvetica" font-size="13" font-weight="bold" lengthAdjust="spacing" textLength="41" x="177.5" y="683.645">13:52</text><text fill="#000000" font-family="Helvetica" font-size="13" lengthAdjust="spacing" textLength="113" x="222.5" y="683.645">Drop HUB (7 pax)</text><text fill="#000000" font-family="Helvetica" font-size="13" lengthAdjust="spacing" textLength="99" x="207" y="698.7778">7 min #42A5F5</text><line style="stroke:#181818;stroke-width:1.0;" x1="170.5" x2="212.5" y1="761.1094" y2="761.1094"/><line style="stroke:#181818;stroke-width:1.0;" x1="212.5" x2="212.5" y1="761.1094" y2="774.1094"/><line style="stroke:#181818;stroke-width:1.0;" x1="171.5" x2="212.5" y1="774.1094" y2="774.1094"/><polygon fill="#181818" points="181.5,770.1094,171.5,774.1094,181.5,778.1094,177.5,774.1094" style="stroke:#181818;stroke-width:1.0;"/><text fill="#000000" font-family="Helvetica" font-size="13" font-weight="bold" lengthAdjust="spacing" textLength="41" x="177.5" y="740.9106">14:24</text><text fill="#000000" font-family="Helvetica" font-size="13" lengthAdjust="spacing" textLength="141" x="222.5" y="740.9106">Drive HUB to SANNER</text><text fill="#000000" font-family="Helvetica" font-size="13" lengthAdjust="spacing" textLength="106" x="217.5" y="756.0435">32 min #FFA726</text><line style="stroke:#181818;stroke-width:1.0;" x1="170.5" x2="212.5" y1="818.375" y2="818.375"/><line style="stroke:#181818;stroke-width:1.0;" x1="212.5" x2="212.5" y1="818.375" y2="831.375"/><line style="stroke:#181818;stroke-width:1.0;" x1="171.5" x2="212.5" y1="831.375" y2="831.375"/><polygon fill="#181818" points="181.5,827.375,171.5,831.375,181.5,835.375,177.5,831.375" style="stroke:#181818;stroke-width:1.0;"/><text fill="#000000" font-family="Helvetica" font-size="13" font-weight="bold" lengthAdjust="spacing" textLength="41" x="177.5" y="798.1763">14:56</text><text fill="#000000" font-family="Helvetica" font-size="13" lengthAdjust="spacing" textLength="148" x="222.5" y="798.1763">Pickup SANNER (1 pax)</text><text fill="#000000" font-family="Helvetica" font-size="13" lengthAdjust="spacing" textLength="102" x="223" y="813.3091">2 min #66BB6A</text><line style="stroke:#181818;stroke-width:1.0;" x1="170.5" x2="212.5" y1="875.6406" y2="875.6406"/><line style="stroke:#181818;stroke-width:1.0;" x1="212.5" x2="212.5" y1="875.6406" y2="888.6406"/><line style="stroke:#181818;stroke-width:1.0;" x1="171.5" x2="212.5" y1="888.6406" y2="888.6406"/><polygon fill="#181818" points="181.5,884.6406,171.5,888.6406,181.5,892.6406,177.5,888.6406" style="stroke:#181818;stroke-width:1.0;"/><text fill="#000000" font-family="Helvetica" font-size="13" font-weight="bold" lengthAdjust="spacing" textLength="41" x="177.5" y="855.4419">14:58</text><text fill="#000000" font-family="Helvetica" font-size="13" lengthAdjust="spacing" textLength="141" x="222.5" y="855.4419">Drive SANNER to HUB</text><text fill="#000000" font-family="Helvetica" font-size="13" lengthAdjust="spacing" textLength="106" x="217.5" y="870.5747">32 min #FFA726</text><line style="stroke:#181818;stroke-width:1.0;" x1="170.5" x2="212.5" y1="932.9063" y2="932.9063"/><line style="stroke:#181818;stroke-width:1.0;" x1="212.5" x2="212.5" y1="932.9063" y2="945.9063"/><line style="stroke:#181818;stroke-width:1.0;" x1="171.5" x2="212.5" y1="945.9063" y2="945.9063"/><polygon fill="#181818" points="181.5,941.9063,171.5,945.9063,181.5,949.9063,177.5,945.9063" style="stroke:#181818;stroke-width:1.0;"/><text fill="#000000" font-family="Helvetica" font-size="13" font-weight="bold" lengthAdjust="spacing" textLength="41" x="177.5" y="912.7075">15:30</text><text fill="#000000" font-family="Helvetica" font-size="13" lengthAdjust="spacing" textLength="113" x="222.5" y="912.7075">Drop HUB (1 pax)</text><text fill="#000000" font-family="Helvetica" font-size="13" lengthAdjust="spacing" textLength="99" x="207" y="927.8403">1 min #42A5F5</text><rect fill="#EEEEEE" height="3" style="stroke:#EEEEEE;stroke-width:1.0;" width="522" x="0" y="974.4727"/><line style="stroke:#000000;stroke-width:1.0;" x1="0" x2="522" y1="974.4727" y2="974.4727"/><line style="stroke:#000000;stroke-width:1.0;" x1="0" x2="522" y1="977.4727" y2="977.4727"/><rect fill="#EEEEEE" height="23.1328" style="stroke:#000000;stroke-width:2.0;" width="98" x="212" y="963.9063"/><text fill="#000000" font-family="Helvetica" font-size="13" font-weight="bold" lengthAdjust="spacing" textLength="79" x="218" y="979.9731">Milestones</text><path d="M76,1002.0391 L76,1027.0391 L264,1027.0391 L264,1012.0391 L254,1002.0391 L76,1002.0391 " fill="#FEFFDD" style="stroke:#181818;stroke-width:0.5;"/><path d="M254,1002.0391 L254,1012.0391 L264,1012.0391 L254,1002.0391 " fill="#FEFFDD" style="stroke:#181818;stroke-width:0.5;"/><text fill="#000000" font-family="Helvetica" font-size="13" lengthAdjust="spacing" textLength="167" x="82" y="1019.106">Chep end: 13:00 #F44336</text><path d="M76,1037.1719 L76,1062.1719 L265,1062.1719 L265,1047.1719 L255,1037.1719 L76,1037.1719 " fill="#FEFFDD" style="stroke:#181818;stroke-width:0.5;"/><path d="M255,1037.1719 L255,1047.1719 L265,1047.1719 L255,1037.1719 " fill="#FEFFDD" style="stroke:#181818;stroke-width:0.5;"/><text fill="#000000" font-family="Helvetica" font-size="13" lengthAdjust="spacing" textLength="168" x="82" y="1054.2388">Orion end: 12:45 #F44336</text><rect fill="#EEEEEE" height="3" style="stroke:#EEEEEE;stroke-width:1.0;" width="522" x="0" y="1087.8711"/><line style="stroke:#000000;stroke-width:1.0;" x1="0" x2="522" y1="1087.8711" y2="1087.8711"/><line style="stroke:#000000;stroke-width:1.0;" x1="0" x2="522" y1="1090.8711" y2="1090.8711"/><rect fill="#EEEEEE" height="23.1328" style="stroke:#000000;stroke-width:2.0;" width="207" x="157.5" y="1077.3047"/><text fill="#000000" font-family="Helvetica" font-size="13" font-weight="bold" lengthAdjust="spacing" textLength="188" x="163.5" y="1093.3716">Sarah (same as Mon-Thu)</text><path d="M324,1115.4375 L324,1155.4375 L517,1155.4375 L517,1125.4375 L507,1115.4375 L324,1115.4375 " fill="#FEFFDD" style="stroke:#181818;stroke-width:0.5;"/><path d="M507,1115.4375 L507,1125.4375 L517,1125.4375 L507,1115.4375 " fill="#FEFFDD" style="stroke:#181818;stroke-width:0.5;"/><text fill="#000000" font-family="Helvetica" font-size="13" font-weight="bold" lengthAdjust="spacing" textLength="52" x="330" y="1132.5044">13:00+</text><text fill="#000000" font-family="Helvetica" font-size="13" lengthAdjust="spacing" textLength="116" x="386" y="1132.5044">Same as Mon-Thu</text><text fill="#000000" font-family="Helvetica" font-size="13" lengthAdjust="spacing" textLength="170" x="330" y="1147.6372">Barbe afternoon #B0BEC5</text><rect fill="#EEEEEE" height="3" style="stroke:#EEEEEE;stroke-width:1.0;" width="522" x="0" y="1181.2695"/><line style="stroke:#000000;stroke-width:1.0;" x1="0" x2="522" y1="1181.2695" y2="1181.2695"/><line style="stroke:#000000;stroke-width:1.0;" x1="0" x2="522" y1="1184.2695" y2="1184.2695"/><rect fill="#EEEEEE" height="23.1328" style="stroke:#000000;stroke-width:2.0;" width="74" x="224" y="1170.7031"/><text fill="#000000" font-family="Helvetica" font-size="13" font-weight="bold" lengthAdjust="spacing" textLength="55" x="230" y="1186.77">Legend</text><path d="M102,1208.8359 L102,1293.8359 L488,1293.8359 L488,1218.8359 L478,1208.8359 L102,1208.8359 " fill="#FEFFDD" style="stroke:#181818;stroke-width:0.5;"/><path d="M478,1208.8359 L478,1218.8359 L488,1218.8359 L478,1208.8359 " fill="#FEFFDD" style="stroke:#181818;stroke-width:0.5;"/><text fill="#000000" font-family="Helvetica" font-size="13" lengthAdjust="spacing" textLength="365" x="108" y="1225.9028">CRITICAL: Chep (5 pax) + Orion (2 pax) overlap on Friday!</text><text fill="#000000" font-family="Helvetica" font-size="13" lengthAdjust="spacing" textLength="344" x="108" y="1241.0356">Combined = 7 passengers, exceeding 6-pax capacity.</text><text fill="#000000" font-family="Helvetica" font-size="13" lengthAdjust="spacing" textLength="308" x="108" y="1256.1685">Options: A) Two separate trips, B) Michael helps,</text><text fill="#000000" font-family="Helvetica" font-size="13" lengthAdjust="spacing" textLength="243" x="108" y="1271.3013">C) One Chep employee takes the bus.</text><text fill="#000000" font-family="Helvetica" font-size="13" lengthAdjust="spacing" textLength="349" x="108" y="1286.4341">Friday Thomas: ~6.2h total (3.0h + 3.2h compressed).</text><rect fill="none" height="128.0781" id="_legend" rx="7.5" ry="7.5" style="stroke:#000000;stroke-width:1.0;" width="195" x="314" y="1369.0938"/><text fill="#000000" font-family="Helvetica" font-size="14" font-weight="bold" lengthAdjust="spacing" textLength="42" x="324" y="1389.0889">Color</text><text fill="#000000" font-family="Helvetica" font-size="14" font-weight="bold" lengthAdjust="spacing" textLength="66" x="376" y="1389.0889">Meaning</text><rect fill="#66BB6A" height="16.2969" style="stroke:none;stroke-width:1.0;" width="52" x="319" y="1392.3906"/><text fill="#000000" font-family="Helvetica" font-size="14" lengthAdjust="spacing" textLength="8" x="319" y="1405.3857">&#160;&#160;</text><text fill="#000000" font-family="Helvetica" font-size="14" lengthAdjust="spacing" textLength="46" x="375" y="1405.3857">Pickup</text><rect fill="#FFA726" height="16.2969" style="stroke:none;stroke-width:1.0;" width="52" x="319" y="1408.6875"/><text fill="#000000" font-family="Helvetica" font-size="14" lengthAdjust="spacing" textLength="8" x="319" y="1421.6826">&#160;&#160;</text><text fill="#000000" font-family="Helvetica" font-size="14" lengthAdjust="spacing" textLength="47" x="375" y="1421.6826">Driving</text><rect fill="#F44336" height="16.2969" style="stroke:none;stroke-width:1.0;" width="52" x="319" y="1424.9844"/><text fill="#000000" font-family="Helvetica" font-size="14" lengthAdjust="spacing" textLength="8" x="319" y="1437.9795">&#160;&#160;</text><text fill="#000000" font-family="Helvetica" font-size="14" lengthAdjust="spacing" textLength="116" x="375" y="1437.9795">OVER CAPACITY!</text><rect fill="#42A5F5" height="16.2969" style="stroke:none;stroke-width:1.0;" width="52" x="319" y="1441.2813"/><text fill="#000000" font-family="Helvetica" font-size="14" lengthAdjust="spacing" textLength="8" x="319" y="1454.2764">&#160;&#160;</text><text fill="#000000" font-family="Helvetica" font-size="14" lengthAdjust="spacing" textLength="51" x="375" y="1454.2764">Dropoff</text><rect fill="#E0E0E0" height="16.2969" style="stroke:none;stroke-width:1.0;" width="52" x="319" y="1457.5781"/><text fill="#000000" font-family="Helvetica" font-size="14" lengthAdjust="spacing" textLength="8" x="319" y="1470.5732">&#160;&#160;</text><text fill="#000000" font-family="Helvetica" font-size="14" lengthAdjust="spacing" textLength="77" x="375" y="1470.5732">Idle / Break</text><rect fill="#B0BEC5" height="16.2969" style="stroke:none;stroke-width:1.0;" width="52" x="319" y="1473.875"/><text fill="#000000" font-family="Helvetica" font-size="14" lengthAdjust="spacing" textLength="8" x="319" y="1486.8701">&#160;&#160;</text><text fill="#000000" font-family="Helvetica" font-size="14" lengthAdjust="spacing" textLength="125" x="375" y="1486.8701">Same as Mon-Thu</text><line style="stroke:#000000;stroke-width:1.0;" x1="319" x2="504" y1="1376.0938" y2="1376.0938"/><line style="stroke:#000000;stroke-width:1.0;" x1="319" x2="504" y1="1392.3906" y2="1392.3906"/><line style="stroke:#000000;stroke-width:1.0;" x1="319" x2="504" y1="1408.6875" y2="1408.6875"/><line style="stroke:#000000;stroke-width:1.0;" x1="319" x2="504" y1="1424.9844" y2="1424.9844"/><line style="stroke:#000000;stroke-width:1.0;" x1="319" x2="504" y1="1441.2813" y2="1441.2813"/><line style="stroke:#000000;stroke-width:1.0;" x1="319" x2="504" y1="1457.5781" y2="1457.5781"/><line style="stroke:#000000;stroke-width:1.0;" x1="319" x2="504" y1="1473.875" y2="1473.875"/><line style="stroke:#000000;stroke-width:1.0;" x1="319" x2="504" y1="1490.1719" y2="1490.1719"/><line style="stroke:#000000;stroke-width:1.0;" x1="319" x2="319" y1="1376.0938" y2="1490.1719"/><line style="stroke:#000000;stroke-width:1.0;" x1="371" x2="371" y1="1376.0938" y2="1490.1719"/><line style="stroke:#000000;stroke-width:1.0;" x1="504" x2="504" y1="1376.0938" y2="1490.1719"/><!--SRC=[XLLDRzD04BtxLqpf9Gcqs8wTKAkfv8I4Hj2aYWC8APUDlOrNiNUDxHGg8NuxinznQoWWNwoTz-RDpCxCLdl62rAI7BOatkzASU39H6IYXDDPA3-hQX09lIE7h9u9NYz8Jk6QPlUqPZ5vWgdermFbCRsXLKLsDCpOZaDCUKrBowfPdL5u_nby1sObIyW3dC54v4M9Q9f0U8SmBWI7A4vfSiZeXazIMe3J3smRNiAoP6XqtC3pGTpJCYC5Z20c1ObP_G0bg_QMXO5WKAmWl8ONwrJafDhmpjkI8G6SxWiW5QpRg0XZJnz1hWP5bZKQmOqeEUCxw5GoPpo-4VnidHwwC1fP5XSrLQ706WBezMmlS5pCoXu6Zj_hGTGcRNW_XNuE9AvH2HBKaxvFn_PuEl6LthYaPF-yR-aJVSlyRVIja1lkf-3wER04QtiwjUMd73rM4uiSteQJ-VeBhERHU-Ly3MTNnk_HdyeUhZ-EeHOmkPxURhXx0JdZs0kpSEWEMYIyaWiatR9uVoWK73e-5EHxTyCTMzC6W_5u4Fv6SouQBSL2iULglbmWxHzYhlqefk3GSOsQrn9hL-roUpM4sp2AfejtqrM4fLX-cgwQUfnSljvUeQBdzVj_A7fDd5eG0vN5wVKwGwbyqktri49lJD3FkV1TvK8KYgXf6F1GKpmtz6T- -ogyfxBcAg9miPYki7NSlzR72_p1Otqq0JgEqNF_UXl8UzF86PfEyvzoVj2tMvaTbPnsPd9yM4QhMd1QFTFJQhWfJm8puSSgjb5wwZLCZVuH9lshqVtlS4PDpzeldvlACIctUD9CpDE1_41tgAqSPlgtPBkqjW1-Z43lIloveKIjYH_o_DBK-Wh_ZvTY3BgQol3MJF_Hef9IbdQF7W6wgeOg2d5tTxJegLUMkLm3hyqMCMQTZ3B_bZaYC26TLkjoNk7s0vYivklv9FnWRihCTxE8pGGsgnYFz5e_aLoHRnd7hJu2sVUuuFcEbjKheDzZIXEP-E0CwStwFaVIigZHSHL0s8NrDu7FYNnMCAgwP0Lonrrig3WbD8EKPdWYXRgmvDJqKbvaue4Ydkonu-gKmlPGIS_clT7lGG0_1-TkYgrUammw_NCxnQJwyYXkdgFkkQmDoA9Olm00]--></g></svg>