<?xml version="1.0" encoding="us-ascii" standalone="no"?><svg xmlns="http://www.w3.org/2000/svg" xmlns:xlink="http://www.w3.org/1999/xlink" contentStyleType="text/css" height="1039px" preserveAspectRatio="none" style="width:589px;height:1039px;background:#FAFAFA;" version="1.1" viewBox="0 0 589 1039" width="589px" zoomAndPan="magnify"><defs/><g><rect fill="#FAFAFA" height="1039" style="stroke:none;stroke-width:1.0;" width="589" x="0" y="0"/><line style="stroke:#181818;stroke-width:0.5;stroke-dasharray:5.0,5.0;" x1="153" x2="153" y1="52.5938" y2="848.0469"/><line style="stroke:#181818;stroke-width:0.5;stroke-dasharray:5.0,5.0;" x1="351" x2="351" y1="52.5938" y2="848.0469"/><rect fill="#E2E2F0" height="46.5938" rx="2.5" ry="2.5" style="stroke:#181818;stroke-width:0.5;" width="54" x="126" y="5"/><text fill="#000000" font-family="Helvetica" font-size="14" lengthAdjust="spacing" textLength="32" x="137" y="24.9951">Early</text><text fill="#000000" font-family="Helvetica" font-size="14" lengthAdjust="spacing" textLength="40" x="133" y="41.292">Driver</text><rect fill="#E2E2F0" height="46.5938" rx="2.5" ry="2.5" style="stroke:#181818;stroke-width:0.5;" width="54" x="126" y="847.0469"/><text fill="#000000" font-family="Helvetica" font-size="14" lengthAdjust="spacing" textLength="32" x="137" y="867.042">Early</text><text fill="#000000" font-family="Helvetica" font-size="14" lengthAdjust="spacing" textLength="40" x="133" y="883.3389">Driver</text><rect fill="#E2E2F0" height="46.5938" rx="2.5" ry="2.5" style="stroke:#181818;stroke-width:0.5;" width="54" x="324" y="5"/><text fill="#000000" font-family="Helvetica" font-size="14" lengthAdjust="spacing" textLength="29" x="336.5" y="24.9951">Late</text><text fill="#000000" font-family="Helvetica" font-size="14" lengthAdjust="spacing" textLength="40" x="331" y="41.292">Driver</text><rect fill="#E2E2F0" height="46.5938" rx="2.5" ry="2.5" style="stroke:#181818;stroke-width:0.5;" width="54" x="324" y="847.0469"/><text fill="#000000" font-family="Helvetica" font-size="14" lengthAdjust="spacing" textLength="29" x="336.5" y="867.042">Late</text><text fill="#000000" font-family="Helvetica" font-size="14" lengthAdjust="spacing" textLength="40" x="331" y="883.3389">Driver</text><line style="stroke:#000000;stroke-width:1.0;stroke-dasharray:2.0,2.0;" x1="0" x2="582" y1="63.5938" y2="63.5938"/><rect fill="#EEEEEE" height="3" style="stroke:#EEEEEE;stroke-width:1.0;" width="582" x="0" y="85.1602"/><line style="stroke:#000000;stroke-width:1.0;" x1="0" x2="582" y1="85.1602" y2="85.1602"/><line style="stroke:#000000;stroke-width:1.0;" x1="0" x2="582" y1="88.1602" y2="88.1602"/><rect fill="#EEEEEE" height="23.1328" style="stroke:#000000;stroke-width:2.0;" width="114" x="234" y="74.5938"/><text fill="#000000" font-family="Helvetica" font-size="13" font-weight="bold" lengthAdjust="spacing" textLength="95" x="240" y="90.6606">Sunday Early</text><line style="stroke:#181818;stroke-width:1.0;" x1="153" x2="195" y1="143.9922" y2="143.9922"/><line style="stroke:#181818;stroke-width:1.0;" x1="195" x2="195" y1="143.9922" y2="156.9922"/><line style="stroke:#181818;stroke-width:1.0;" x1="154" x2="195" y1="156.9922" y2="156.9922"/><polygon fill="#181818" points="164,152.9922,154,156.9922,164,160.9922,160,156.9922" style="stroke:#181818;stroke-width:1.0;"/><text fill="#000000" font-family="Helvetica" font-size="13" font-weight="bold" lengthAdjust="spacing" textLength="41" x="160" y="123.7935">05:10</text><text fill="#000000" font-family="Helvetica" font-size="13" lengthAdjust="spacing" textLength="132" x="205" y="123.7935">Drive HUB to BENEO</text><text fill="#000000" font-family="Helvetica" font-size="13" lengthAdjust="spacing" textLength="106" x="195.5" y="138.9263">34 min #FFA726</text><line style="stroke:#181818;stroke-width:1.0;" x1="153" x2="195" y1="201.2578" y2="201.2578"/><line style="stroke:#181818;stroke-width:1.0;" x1="195" x2="195" y1="201.2578" y2="214.2578"/><line style="stroke:#181818;stroke-width:1.0;" x1="154" x2="195" y1="214.2578" y2="214.2578"/><polygon fill="#181818" points="164,210.2578,154,214.2578,164,218.2578,160,214.2578" style="stroke:#181818;stroke-width:1.0;"/><text fill="#000000" font-family="Helvetica" font-size="13" font-weight="bold" lengthAdjust="spacing" textLength="41" x="160" y="181.0591">05:44</text><text fill="#000000" font-family="Helvetica" font-size="13" lengthAdjust="spacing" textLength="139" x="205" y="181.0591">Pickup BENEO (1 pax)</text><text fill="#000000" font-family="Helvetica" font-size="13" lengthAdjust="spacing" textLength="102" x="201" y="196.1919">2 min #66BB6A</text><line style="stroke:#181818;stroke-width:1.0;" x1="153" x2="195" y1="258.5234" y2="258.5234"/><line style="stroke:#181818;stroke-width:1.0;" x1="195" x2="195" y1="258.5234" y2="271.5234"/><line style="stroke:#181818;stroke-width:1.0;" x1="154" x2="195" y1="271.5234" y2="271.5234"/><polygon fill="#181818" points="164,267.5234,154,271.5234,164,275.5234,160,271.5234" style="stroke:#181818;stroke-width:1.0;"/><text fill="#000000" font-family="Helvetica" font-size="13" font-weight="bold" lengthAdjust="spacing" textLength="41" x="160" y="238.3247">05:46</text><text fill="#000000" font-family="Helvetica" font-size="13" lengthAdjust="spacing" textLength="132" x="205" y="238.3247">Drive BENEO to HUB</text><text fill="#000000" font-family="Helvetica" font-size="13" lengthAdjust="spacing" textLength="106" x="195.5" y="253.4575">34 min #FFA726</text><line style="stroke:#181818;stroke-width:1.0;" x1="153" x2="195" y1="315.7891" y2="315.7891"/><line style="stroke:#181818;stroke-width:1.0;" x1="195" x2="195" y1="315.7891" y2="328.7891"/><line style="stroke:#181818;stroke-width:1.0;" x1="154" x2="195" y1="328.7891" y2="328.7891"/><polygon fill="#181818" points="164,324.7891,154,328.7891,164,332.7891,160,328.7891" style="stroke:#181818;stroke-width:1.0;"/><text fill="#000000" font-family="Helvetica" font-size="13" font-weight="bold" lengthAdjust="spacing" textLength="41" x="160" y="295.5903">06:20</text><text fill="#000000" font-family="Helvetica" font-size="13" lengthAdjust="spacing" textLength="113" x="205" y="295.5903">Drop HUB (1 pax)</text><text fill="#000000" font-family="Helvetica" font-size="13" lengthAdjust="spacing" textLength="99" x="189.5" y="310.7231">1 min #42A5F5</text><path d="M5,341.7891 L5,366.7891 L302,366.7891 L302,351.7891 L292,341.7891 L5,341.7891 " fill="#FEFFDD" style="stroke:#181818;stroke-width:0.5;"/><path d="M292,341.7891 L292,351.7891 L302,351.7891 L292,341.7891 " fill="#FEFFDD" style="stroke:#181818;stroke-width:0.5;"/><text fill="#000000" font-family="Helvetica" font-size="13" lengthAdjust="spacing" textLength="276" x="11" y="358.856">Milestone: Beneo night end 05:35 #F44336</text><rect fill="#EEEEEE" height="3" style="stroke:#EEEEEE;stroke-width:1.0;" width="582" x="0" y="392.4883"/><line style="stroke:#000000;stroke-width:1.0;" x1="0" x2="582" y1="392.4883" y2="392.4883"/><line style="stroke:#000000;stroke-width:1.0;" x1="0" x2="582" y1="395.4883" y2="395.4883"/><rect fill="#EEEEEE" height="23.1328" style="stroke:#000000;stroke-width:2.0;" width="110" x="236" y="381.9219"/><text fill="#000000" font-family="Helvetica" font-size="13" font-weight="bold" lengthAdjust="spacing" textLength="91" x="242" y="397.9888">Sunday Late</text><path d="M234,420.0547 L234,445.0547 L467,445.0547 L467,430.0547 L457,420.0547 L234,420.0547 " fill="#FEFFDD" style="stroke:#181818;stroke-width:0.5;"/><path d="M457,420.0547 L457,430.0547 L467,430.0547 L457,420.0547 " fill="#FEFFDD" style="stroke:#181818;stroke-width:0.5;"/><text fill="#000000" font-family="Helvetica" font-size="13" lengthAdjust="spacing" textLength="212" x="240" y="437.1216">Off duty (06:20 - 17:00) #E0E0E0</text><line style="stroke:#181818;stroke-width:1.0;" x1="351" x2="393" y1="486.4531" y2="486.4531"/><line style="stroke:#181818;stroke-width:1.0;" x1="393" x2="393" y1="486.4531" y2="499.4531"/><line style="stroke:#181818;stroke-width:1.0;" x1="352" x2="393" y1="499.4531" y2="499.4531"/><polygon fill="#181818" points="362,495.4531,352,499.4531,362,503.4531,358,499.4531" style="stroke:#181818;stroke-width:1.0;"/><text fill="#000000" font-family="Helvetica" font-size="13" font-weight="bold" lengthAdjust="spacing" textLength="41" x="358" y="466.2544">17:00</text><text fill="#000000" font-family="Helvetica" font-size="13" lengthAdjust="spacing" textLength="172" x="403" y="466.2544">Pickup HUB (1 pax: Beneo)</text><text fill="#000000" font-family="Helvetica" font-size="13" lengthAdjust="spacing" textLength="102" x="415.5" y="481.3872">2 min #66BB6A</text><line style="stroke:#181818;stroke-width:1.0;" x1="351" x2="393" y1="543.7188" y2="543.7188"/><line style="stroke:#181818;stroke-width:1.0;" x1="393" x2="393" y1="543.7188" y2="556.7188"/><line style="stroke:#181818;stroke-width:1.0;" x1="352" x2="393" y1="556.7188" y2="556.7188"/><polygon fill="#181818" points="362,552.7188,352,556.7188,362,560.7188,358,556.7188" style="stroke:#181818;stroke-width:1.0;"/><text fill="#000000" font-family="Helvetica" font-size="13" font-weight="bold" lengthAdjust="spacing" textLength="41" x="358" y="523.52">17:02</text><text fill="#000000" font-family="Helvetica" font-size="13" lengthAdjust="spacing" textLength="132" x="403" y="523.52">Drive HUB to BENEO</text><text fill="#000000" font-family="Helvetica" font-size="13" lengthAdjust="spacing" textLength="106" x="393.5" y="538.6528">34 min #FFA726</text><line style="stroke:#181818;stroke-width:1.0;" x1="351" x2="393" y1="600.9844" y2="600.9844"/><line style="stroke:#181818;stroke-width:1.0;" x1="393" x2="393" y1="600.9844" y2="613.9844"/><line style="stroke:#181818;stroke-width:1.0;" x1="352" x2="393" y1="613.9844" y2="613.9844"/><polygon fill="#181818" points="362,609.9844,352,613.9844,362,617.9844,358,613.9844" style="stroke:#181818;stroke-width:1.0;"/><text fill="#000000" font-family="Helvetica" font-size="13" font-weight="bold" lengthAdjust="spacing" textLength="41" x="358" y="580.7856">17:36</text><text fill="#000000" font-family="Helvetica" font-size="13" lengthAdjust="spacing" textLength="129" x="403" y="580.7856">Drop BENEO (1 pax)</text><text fill="#000000" font-family="Helvetica" font-size="13" lengthAdjust="spacing" textLength="99" x="395.5" y="595.9185">1 min #42A5F5</text><line style="stroke:#181818;stroke-width:1.0;" x1="351" x2="393" y1="658.25" y2="658.25"/><line style="stroke:#181818;stroke-width:1.0;" x1="393" x2="393" y1="658.25" y2="671.25"/><line style="stroke:#181818;stroke-width:1.0;" x1="352" x2="393" y1="671.25" y2="671.25"/><polygon fill="#181818" points="362,667.25,352,671.25,362,675.25,358,671.25" style="stroke:#181818;stroke-width:1.0;"/><text fill="#000000" font-family="Helvetica" font-size="13" font-weight="bold" lengthAdjust="spacing" textLength="41" x="358" y="638.0513">17:37</text><text fill="#000000" font-family="Helvetica" font-size="13" lengthAdjust="spacing" textLength="132" x="403" y="638.0513">Drive BENEO to HUB</text><text fill="#000000" font-family="Helvetica" font-size="13" lengthAdjust="spacing" textLength="106" x="393.5" y="653.1841">34 min #FFA726</text><path d="M191,684.25 L191,709.25 L510,709.25 L510,694.25 L500,684.25 L191,684.25 " fill="#FEFFDD" style="stroke:#181818;stroke-width:0.5;"/><path d="M500,684.25 L500,694.25 L510,694.25 L500,684.25 " fill="#FEFFDD" style="stroke:#181818;stroke-width:0.5;"/><text fill="#000000" font-family="Helvetica" font-size="13" lengthAdjust="spacing" textLength="298" x="197" y="701.3169">Milestone: Beneo Sunday start 17:35 #F44336</text><rect fill="#EEEEEE" height="3" style="stroke:#EEEEEE;stroke-width:1.0;" width="582" x="0" y="734.9492"/><line style="stroke:#000000;stroke-width:1.0;" x1="0" x2="582" y1="734.9492" y2="734.9492"/><line style="stroke:#000000;stroke-width:1.0;" x1="0" x2="582" y1="737.9492" y2="737.9492"/><rect fill="#EEEEEE" height="23.1328" style="stroke:#000000;stroke-width:2.0;" width="74" x="254" y="724.3828"/><text fill="#000000" font-family="Helvetica" font-size="13" font-weight="bold" lengthAdjust="spacing" textLength="55" x="260" y="740.4497">Legend</text><path d="M51,762.5156 L51,832.5156 L453,832.5156 L453,772.5156 L443,762.5156 L51,762.5156 " fill="#FEFFDD" style="stroke:#181818;stroke-width:0.5;"/><path d="M443,762.5156 L443,772.5156 L453,772.5156 L443,762.5156 " fill="#FEFFDD" style="stroke:#181818;stroke-width:0.5;"/><text fill="#000000" font-family="Helvetica" font-size="13" lengthAdjust="spacing" textLength="285" x="57" y="779.5825">Weekend: Only Beneo + Barbe need service.</text><text fill="#000000" font-family="Helvetica" font-size="13" lengthAdjust="spacing" textLength="333" x="57" y="794.7153">Early driver: Beneo return + Barbe return (Sat only).</text><text fill="#000000" font-family="Helvetica" font-size="13" lengthAdjust="spacing" textLength="358" x="57" y="809.8481">Late driver: Beneo night drop (Sat) / Sunday drop (Sun).</text><text fill="#000000" font-family="Helvetica" font-size="13" lengthAdjust="spacing" textLength="381" x="57" y="824.981">Weekend distance: ~141 km total (both drivers, both days).</text><rect fill="none" height="111.7813" id="_legend" rx="7.5" ry="7.5" style="stroke:#000000;stroke-width:1.0;" width="138" x="431" y="907.6406"/><text fill="#000000" font-family="Helvetica" font-size="14" font-weight="bold" lengthAdjust="spacing" textLength="42" x="441" y="927.6357">Color</text><text fill="#000000" font-family="Helvetica" font-size="14" font-weight="bold" lengthAdjust="spacing" textLength="66" x="493" y="927.6357">Meaning</text><rect fill="#66BB6A" height="16.2969" style="stroke:none;stroke-width:1.0;" width="52" x="436" y="930.9375"/><text fill="#000000" font-family="Helvetica" font-size="14" lengthAdjust="spacing" textLength="8" x="436" y="943.9326">&#160;&#160;</text><text fill="#000000" font-family="Helvetica" font-size="14" lengthAdjust="spacing" textLength="46" x="492" y="943.9326">Pickup</text><rect fill="#FFA726" height="16.2969" style="stroke:none;stroke-width:1.0;" width="52" x="436" y="947.2344"/><text fill="#000000" font-family="Helvetica" font-size="14" lengthAdjust="spacing" textLength="8" x="436" y="960.2295">&#160;&#160;</text><text fill="#000000" font-family="Helvetica" font-size="14" lengthAdjust="spacing" textLength="47" x="492" y="960.2295">Driving</text><rect fill="#42A5F5" height="16.2969" style="stroke:none;stroke-width:1.0;" width="52" x="436" y="963.5313"/><text fill="#000000" font-family="Helvetica" font-size="14" lengthAdjust="spacing" textLength="8" x="436" y="976.5264">&#160;&#160;</text><text fill="#000000" font-family="Helvetica" font-size="14" lengthAdjust="spacing" textLength="51" x="492" y="976.5264">Dropoff</text><rect fill="#E0E0E0" height="16.2969" style="stroke:none;stroke-width:1.0;" width="52" x="436" y="979.8281"/><text fill="#000000" font-family="Helvetica" font-size="14" lengthAdjust="spacing" textLength="8" x="436" y="992.8232">&#160;&#160;</text><text fill="#000000" font-family="Helvetica" font-size="14" lengthAdjust="spacing" textLength="24" x="492" y="992.8232">Idle</text><rect fill="#F44336" height="16.2969" style="stroke:none;stroke-width:1.0;" width="52" x="436" y="996.125"/><text fill="#000000" font-family="Helvetica" font-size="14" lengthAdjust="spacing" textLength="8" x="436" y="1009.1201">&#160;&#160;</text><text fill="#000000" font-family="Helvetica" font-size="14" lengthAdjust="spacing" textLength="67" x="492" y="1009.1201">Milestone</text><line style="stroke:#000000;stroke-width:1.0;" x1="436" x2="564" y1="914.6406" y2="914.6406"/><line style="stroke:#000000;stroke-width:1.0;" x1="436" x2="564" y1="930.9375" y2="930.9375"/><line style="stroke:#000000;stroke-width:1.0;" x1="436" x2="564" y1="947.2344" y2="947.2344"/><line style="stroke:#000000;stroke-width:1.0;" x1="436" x2="564" y1="963.5313" y2="963.5313"/><line style="stroke:#000000;stroke-width:1.0;" x1="436" x2="564" y1="979.8281" y2="979.8281"/><line style="stroke:#000000;stroke-width:1.0;" x1="436" x2="564" y1="996.125" y2="996.125"/><line style="stroke:#000000;stroke-width:1.0;" x1="436" x2="564" y1="1012.4219" y2="1012.4219"/><line style="stroke:#000000;stroke-width:1.0;" x1="436" x2="436" y1="914.6406" y2="1012.4219"/><line style="stroke:#000000;stroke-width:1.0;" x1="488" x2="488" y1="914.6406" y2="1012.4219"/><line style="stroke:#000000;stroke-width:1.0;" x1="564" x2="564" y1="914.6406" y2="1012.4219"/><!--SRC=[tLPDRzf04BtxLuoI2v2FsiOO5PL8q1gbAacgfbKkN3PuGbQONMglQP6Y_lRExjg0dP8cRK-LB-kTUJipRzvudSsvMBAKBU2MJUUpLEOYVYiJcSBXQA0V9zjun7Z7yaIDf52NR85mZiaA5P-o7PyCl-OefdY1MSPcE4ZuJC0KXSBKSHHN2SA76-XuS8CuHn732Opbb2ak1LojC8NFV84JSSqK-EwfvyCHNES2V8_MfxxhTnodtmSovsdCrX2nD5b3l-yu59vIuKic51oOxObubt8wyW1O1b7LOSmKLknZnudWv0mYw46hvNPwdjjgWN60yoz3K1A6qMLqDH7j01PS43sZGTSFQwWW8DH7FftdI-iF3G-Mx7jp8dmB2yFXC1pKOU4cc4LHE8hwPB2mvziKvT9ak0daMKZW3pgZJXtYFQfgy6aORRBxTPpsJb7Q7Hf-4IlOMnJ1kjkY3AeiwibOhoir-LNoYfeS8HM2r7BHm0kUOAQam1uCKQ04mMVt2hIwYDjsXq85GRiTLgMZ9M2KipriJ8TTtTr1dAirD0ZRSKcVljTptIOSHgv-76Ui4nwRX8rfIyws3KKcZzfUm_hFqrWLrGvBYceAgpQ-1ke-Js4rDlPGcoaQ9atCBha2lorfvFUDEOsnfhq-oNPtEyV_vnJ-bM8jHR_Ngyw5YFQwU_LgJ7-eLurzkLu9zNAzQj0_qcj1dXMiFhVAxHXdcdHDQsANgUw40_3G1tiFqk82cU1Y1Wzw_qt1pHcjIo8BWyt967JgEn1ROs6HIqbDAoosIyRoFgQnAOyoEPhjJKraemnjdXL57TFr1UMeaIG4pP8j_mY6BBr548WntStfYa_nb7pjlCNc_YkfIf6-Z683ALuR-YgMT69Juum8gp0htLZtL_isuLL9Uh6N2mCjlmGnfsRG7q8FVdY11_C5jLQn11gtKjqNPsV7OD_OEYEmXkbodPy0]--></g></svg>