<?xml version="1.0" encoding="us-ascii" standalone="no"?><svg xmlns="http://www.w3.org/2000/svg" xmlns:xlink="http://www.w3.org/1999/xlink" contentStyleType="text/css" height="1181px" preserveAspectRatio="none" style="width:589px;height:1181px;background:#FAFAFA;" version="1.1" viewBox="0 0 589 1181" width="589px" zoomAndPan="magnify"><defs/><g><rect fill="#FAFAFA" height="1181" style="stroke:none;stroke-width:1.0;" width="589" x="0" y="0"/><text fill="#000000" font-family="Helvetica" font-size="14" font-weight="bold" lengthAdjust="spacing" textLength="299" x="141" y="27.9951">KW 51 Weekend - Sunday 21.12.2025</text><line style="stroke:#181818;stroke-width:0.5;stroke-dasharray:5.0,5.0;" x1="153" x2="153" y1="89.8906" y2="989.7422"/><line style="stroke:#181818;stroke-width:0.5;stroke-dasharray:5.0,5.0;" x1="351" x2="351" y1="89.8906" y2="989.7422"/><rect fill="#E2E2F0" height="46.5938" rx="2.5" ry="2.5" style="stroke:#181818;stroke-width:0.5;" width="54" x="126" y="42.2969"/><text fill="#000000" font-family="Helvetica" font-size="14" lengthAdjust="spacing" textLength="32" x="137" y="62.292">Early</text><text fill="#000000" font-family="Helvetica" font-size="14" lengthAdjust="spacing" textLength="40" x="133" y="78.5889">Driver</text><rect fill="#E2E2F0" height="46.5938" rx="2.5" ry="2.5" style="stroke:#181818;stroke-width:0.5;" width="54" x="126" y="988.7422"/><text fill="#000000" font-family="Helvetica" font-size="14" lengthAdjust="spacing" textLength="32" x="137" y="1008.7373">Early</text><text fill="#000000" font-family="Helvetica" font-size="14" lengthAdjust="spacing" textLength="40" x="133" y="1025.0342">Driver</text><rect fill="#E2E2F0" height="46.5938" rx="2.5" ry="2.5" style="stroke:#181818;stroke-width:0.5;" width="54" x="324" y="42.2969"/><text fill="#000000" font-family="Helvetica" font-size="14" lengthAdjust="spacing" textLength="29" x="336.5" y="62.292">Late</text><text fill="#000000" font-family="Helvetica" font-size="14" lengthAdjust="spacing" textLength="40" x="331" y="78.5889">Driver</text><rect fill="#E2E2F0" height="46.5938" rx="2.5" ry="2.5" style="stroke:#181818;stroke-width:0.5;" width="54" x="324" y="988.7422"/><text fill="#000000" font-family="Helvetica" font-size="14" lengthAdjust="spacing" textLength="29" x="336.5" y="1008.7373">Late</text><text fill="#000000" font-family="Helvetica" font-size="14" lengthAdjust="spacing" textLength="40" x="331" y="1025.0342">Driver</text><rect fill="#EEEEEE" height="3" style="stroke:#EEEEEE;stroke-width:1.0;" width="582" x="0" y="120.457"/><line style="stroke:#000000;stroke-width:1.0;" x1="0" x2="582" y1="120.457" y2="120.457"/><line style="stroke:#000000;stroke-width:1.0;" x1="0" x2="582" y1="123.457" y2="123.457"/><rect fill="#EEEEEE" height="23.1328" style="stroke:#000000;stroke-width:2.0;" width="126" x="228" y="109.8906"/><text fill="#000000" font-family="Helvetica" font-size="13" font-weight="bold" lengthAdjust="spacing" textLength="107" x="234" y="125.9575">Saturday Early</text><line style="stroke:#181818;stroke-width:1.0;" x1="153" x2="195" y1="179.2891" y2="179.2891"/><line style="stroke:#181818;stroke-width:1.0;" x1="195" x2="195" y1="179.2891" y2="192.2891"/><line style="stroke:#181818;stroke-width:1.0;" x1="154" x2="195" y1="192.2891" y2="192.2891"/><polygon fill="#181818" points="164,188.2891,154,192.2891,164,196.2891,160,192.2891" style="stroke:#181818;stroke-width:1.0;"/><text fill="#000000" font-family="Helvetica" font-size="13" font-weight="bold" lengthAdjust="spacing" textLength="41" x="160" y="159.0903">05:10</text><text fill="#000000" font-family="Helvetica" font-size="13" lengthAdjust="spacing" textLength="132" x="205" y="159.0903">Drive HUB to BENEO</text><text fill="#000000" font-family="Helvetica" font-size="13" lengthAdjust="spacing" textLength="106" x="195.5" y="174.2231">34 min #FFA726</text><line style="stroke:#181818;stroke-width:1.0;" x1="153" x2="195" y1="236.5547" y2="236.5547"/><line style="stroke:#181818;stroke-width:1.0;" x1="195" x2="195" y1="236.5547" y2="249.5547"/><line style="stroke:#181818;stroke-width:1.0;" x1="154" x2="195" y1="249.5547" y2="249.5547"/><polygon fill="#181818" points="164,245.5547,154,249.5547,164,253.5547,160,249.5547" style="stroke:#181818;stroke-width:1.0;"/><text fill="#000000" font-family="Helvetica" font-size="13" font-weight="bold" lengthAdjust="spacing" textLength="41" x="160" y="216.356">05:44</text><text fill="#000000" font-family="Helvetica" font-size="13" lengthAdjust="spacing" textLength="139" x="205" y="216.356">Pickup BENEO (1 pax)</text><text fill="#000000" font-family="Helvetica" font-size="13" lengthAdjust="spacing" textLength="102" x="201" y="231.4888">2 min #66BB6A</text><line style="stroke:#181818;stroke-width:1.0;" x1="153" x2="195" y1="293.8203" y2="293.8203"/><line style="stroke:#181818;stroke-width:1.0;" x1="195" x2="195" y1="293.8203" y2="306.8203"/><line style="stroke:#181818;stroke-width:1.0;" x1="154" x2="195" y1="306.8203" y2="306.8203"/><polygon fill="#181818" points="164,302.8203,154,306.8203,164,310.8203,160,306.8203" style="stroke:#181818;stroke-width:1.0;"/><text fill="#000000" font-family="Helvetica" font-size="13" font-weight="bold" lengthAdjust="spacing" textLength="41" x="160" y="273.6216">05:46</text><text fill="#000000" font-family="Helvetica" font-size="13" lengthAdjust="spacing" textLength="132" x="205" y="273.6216">Drive BENEO to HUB</text><text fill="#000000" font-family="Helvetica" font-size="13" lengthAdjust="spacing" textLength="106" x="195.5" y="288.7544">34 min #FFA726</text><line style="stroke:#181818;stroke-width:1.0;" x1="153" x2="195" y1="351.0859" y2="351.0859"/><line style="stroke:#181818;stroke-width:1.0;" x1="195" x2="195" y1="351.0859" y2="364.0859"/><line style="stroke:#181818;stroke-width:1.0;" x1="154" x2="195" y1="364.0859" y2="364.0859"/><polygon fill="#181818" points="164,360.0859,154,364.0859,164,368.0859,160,364.0859" style="stroke:#181818;stroke-width:1.0;"/><text fill="#000000" font-family="Helvetica" font-size="13" font-weight="bold" lengthAdjust="spacing" textLength="41" x="160" y="330.8872">06:20</text><text fill="#000000" font-family="Helvetica" font-size="13" lengthAdjust="spacing" textLength="113" x="205" y="330.8872">Drop HUB (1 pax)</text><text fill="#000000" font-family="Helvetica" font-size="13" lengthAdjust="spacing" textLength="99" x="189.5" y="346.02">1 min #42A5F5</text><line style="stroke:#181818;stroke-width:1.0;" x1="153" x2="195" y1="408.3516" y2="408.3516"/><line style="stroke:#181818;stroke-width:1.0;" x1="195" x2="195" y1="408.3516" y2="421.3516"/><line style="stroke:#181818;stroke-width:1.0;" x1="154" x2="195" y1="421.3516" y2="421.3516"/><polygon fill="#181818" points="164,417.3516,154,421.3516,164,425.3516,160,421.3516" style="stroke:#181818;stroke-width:1.0;"/><text fill="#000000" font-family="Helvetica" font-size="13" font-weight="bold" lengthAdjust="spacing" textLength="41" x="160" y="388.1528">06:21</text><text fill="#000000" font-family="Helvetica" font-size="13" lengthAdjust="spacing" textLength="130" x="205" y="388.1528">Drive HUB to BARBE</text><text fill="#000000" font-family="Helvetica" font-size="13" lengthAdjust="spacing" textLength="98" x="198.5" y="403.2856">2 min #FFA726</text><line style="stroke:#181818;stroke-width:1.0;" x1="153" x2="195" y1="465.6172" y2="465.6172"/><line style="stroke:#181818;stroke-width:1.0;" x1="195" x2="195" y1="465.6172" y2="478.6172"/><line style="stroke:#181818;stroke-width:1.0;" x1="154" x2="195" y1="478.6172" y2="478.6172"/><polygon fill="#181818" points="164,474.6172,154,478.6172,164,482.6172,160,478.6172" style="stroke:#181818;stroke-width:1.0;"/><text fill="#000000" font-family="Helvetica" font-size="13" font-weight="bold" lengthAdjust="spacing" textLength="41" x="160" y="445.4185">06:23</text><text fill="#000000" font-family="Helvetica" font-size="13" lengthAdjust="spacing" textLength="137" x="205" y="445.4185">Pickup BARBE (2 pax)</text><text fill="#000000" font-family="Helvetica" font-size="13" lengthAdjust="spacing" textLength="102" x="200" y="460.5513">4 min #66BB6A</text><line style="stroke:#181818;stroke-width:1.0;" x1="153" x2="195" y1="522.8828" y2="522.8828"/><line style="stroke:#181818;stroke-width:1.0;" x1="195" x2="195" y1="522.8828" y2="535.8828"/><line style="stroke:#181818;stroke-width:1.0;" x1="154" x2="195" y1="535.8828" y2="535.8828"/><polygon fill="#181818" points="164,531.8828,154,535.8828,164,539.8828,160,535.8828" style="stroke:#181818;stroke-width:1.0;"/><text fill="#000000" font-family="Helvetica" font-size="13" font-weight="bold" lengthAdjust="spacing" textLength="41" x="160" y="502.6841">06:27</text><text fill="#000000" font-family="Helvetica" font-size="13" lengthAdjust="spacing" textLength="130" x="205" y="502.6841">Drive BARBE to HUB</text><text fill="#000000" font-family="Helvetica" font-size="13" lengthAdjust="spacing" textLength="98" x="198.5" y="517.8169">2 min #FFA726</text><line style="stroke:#181818;stroke-width:1.0;" x1="153" x2="195" y1="580.1484" y2="580.1484"/><line style="stroke:#181818;stroke-width:1.0;" x1="195" x2="195" y1="580.1484" y2="593.1484"/><line style="stroke:#181818;stroke-width:1.0;" x1="154" x2="195" y1="593.1484" y2="593.1484"/><polygon fill="#181818" points="164,589.1484,154,593.1484,164,597.1484,160,593.1484" style="stroke:#181818;stroke-width:1.0;"/><text fill="#000000" font-family="Helvetica" font-size="13" font-weight="bold" lengthAdjust="spacing" textLength="41" x="160" y="559.9497">06:29</text><text fill="#000000" font-family="Helvetica" font-size="13" lengthAdjust="spacing" textLength="113" x="205" y="559.9497">Drop HUB (2 pax)</text><text fill="#000000" font-family="Helvetica" font-size="13" lengthAdjust="spacing" textLength="99" x="189.5" y="575.0825">2 min #42A5F5</text><path d="M5,606.1484 L5,631.1484 L302,631.1484 L302,616.1484 L292,606.1484 L5,606.1484 " fill="#FEFFDD" style="stroke:#181818;stroke-width:0.5;"/><path d="M292,606.1484 L292,616.1484 L302,616.1484 L292,606.1484 " fill="#FEFFDD" style="stroke:#181818;stroke-width:0.5;"/><text fill="#000000" font-family="Helvetica" font-size="13" lengthAdjust="spacing" textLength="276" x="11" y="623.2153">Milestone: Beneo night end 05:35 #F44336</text><rect fill="#EEEEEE" height="3" style="stroke:#EEEEEE;stroke-width:1.0;" width="582" x="0" y="656.8477"/><line style="stroke:#000000;stroke-width:1.0;" x1="0" x2="582" y1="656.8477" y2="656.8477"/><line style="stroke:#000000;stroke-width:1.0;" x1="0" x2="582" y1="659.8477" y2="659.8477"/><rect fill="#EEEEEE" height="23.1328" style="stroke:#000000;stroke-width:2.0;" width="122" x="230" y="646.2813"/><text fill="#000000" font-family="Helvetica" font-size="13" font-weight="bold" lengthAdjust="spacing" textLength="103" x="236" y="662.3481">Saturday Late</text><path d="M234,684.4141 L234,709.4141 L467,709.4141 L467,694.4141 L457,684.4141 L234,684.4141 " fill="#FEFFDD" style="stroke:#181818;stroke-width:0.5;"/><path d="M457,684.4141 L457,694.4141 L467,694.4141 L457,684.4141 " fill="#FEFFDD" style="stroke:#181818;stroke-width:0.5;"/><text fill="#000000" font-family="Helvetica" font-size="13" lengthAdjust="spacing" textLength="212" x="240" y="701.481">Off duty (05:50 - 21:00) #E0E0E0</text><line style="stroke:#181818;stroke-width:1.0;" x1="351" x2="393" y1="750.8125" y2="750.8125"/><line style="stroke:#181818;stroke-width:1.0;" x1="393" x2="393" y1="750.8125" y2="763.8125"/><line style="stroke:#181818;stroke-width:1.0;" x1="352" x2="393" y1="763.8125" y2="763.8125"/><polygon fill="#181818" points="362,759.8125,352,763.8125,362,767.8125,358,763.8125" style="stroke:#181818;stroke-width:1.0;"/><text fill="#000000" font-family="Helvetica" font-size="13" font-weight="bold" lengthAdjust="spacing" textLength="41" x="358" y="730.6138">21:00</text><text fill="#000000" font-family="Helvetica" font-size="13" lengthAdjust="spacing" textLength="172" x="403" y="730.6138">Pickup HUB (1 pax: Beneo)</text><text fill="#000000" font-family="Helvetica" font-size="13" lengthAdjust="spacing" textLength="102" x="415.5" y="745.7466">2 min #66BB6A</text><line style="stroke:#181818;stroke-width:1.0;" x1="351" x2="393" y1="808.0781" y2="808.0781"/><line style="stroke:#181818;stroke-width:1.0;" x1="393" x2="393" y1="808.0781" y2="821.0781"/><line style="stroke:#181818;stroke-width:1.0;" x1="352" x2="393" y1="821.0781" y2="821.0781"/><polygon fill="#181818" points="362,817.0781,352,821.0781,362,825.0781,358,821.0781" style="stroke:#181818;stroke-width:1.0;"/><text fill="#000000" font-family="Helvetica" font-size="13" font-weight="bold" lengthAdjust="spacing" textLength="41" x="358" y="787.8794">21:02</text><text fill="#000000" font-family="Helvetica" font-size="13" lengthAdjust="spacing" textLength="132" x="403" y="787.8794">Drive HUB to BENEO</text><text fill="#000000" font-family="Helvetica" font-size="13" lengthAdjust="spacing" textLength="106" x="393.5" y="803.0122">34 min #FFA726</text><line style="stroke:#181818;stroke-width:1.0;" x1="351" x2="393" y1="865.3438" y2="865.3438"/><line style="stroke:#181818;stroke-width:1.0;" x1="393" x2="393" y1="865.3438" y2="878.3438"/><line style="stroke:#181818;stroke-width:1.0;" x1="352" x2="393" y1="878.3438" y2="878.3438"/><polygon fill="#181818" points="362,874.3438,352,878.3438,362,882.3438,358,878.3438" style="stroke:#181818;stroke-width:1.0;"/><text fill="#000000" font-family="Helvetica" font-size="13" font-weight="bold" lengthAdjust="spacing" textLength="41" x="358" y="845.145">21:36</text><text fill="#000000" font-family="Helvetica" font-size="13" lengthAdjust="spacing" textLength="129" x="403" y="845.145">Drop BENEO (1 pax)</text><text fill="#000000" font-family="Helvetica" font-size="13" lengthAdjust="spacing" textLength="99" x="395.5" y="860.2778">1 min #42A5F5</text><line style="stroke:#181818;stroke-width:1.0;" x1="351" x2="393" y1="922.6094" y2="922.6094"/><line style="stroke:#181818;stroke-width:1.0;" x1="393" x2="393" y1="922.6094" y2="935.6094"/><line style="stroke:#181818;stroke-width:1.0;" x1="352" x2="393" y1="935.6094" y2="935.6094"/><polygon fill="#181818" points="362,931.6094,352,935.6094,362,939.6094,358,935.6094" style="stroke:#181818;stroke-width:1.0;"/><text fill="#000000" font-family="Helvetica" font-size="13" font-weight="bold" lengthAdjust="spacing" textLength="41" x="358" y="902.4106">21:37</text><text fill="#000000" font-family="Helvetica" font-size="13" lengthAdjust="spacing" textLength="132" x="403" y="902.4106">Drive BENEO to HUB</text><text fill="#000000" font-family="Helvetica" font-size="13" lengthAdjust="spacing" textLength="106" x="393.5" y="917.5435">34 min #FFA726</text><path d="M199,948.6094 L199,973.6094 L502,973.6094 L502,958.6094 L492,948.6094 L199,948.6094 " fill="#FEFFDD" style="stroke:#181818;stroke-width:0.5;"/><path d="M492,948.6094 L492,958.6094 L502,958.6094 L492,948.6094 " fill="#FEFFDD" style="stroke:#181818;stroke-width:0.5;"/><text fill="#000000" font-family="Helvetica" font-size="13" lengthAdjust="spacing" textLength="282" x="205" y="965.6763">Milestone: Beneo night start 21:35 #F44336</text><line style="stroke:#000000;stroke-width:1.0;stroke-dasharray:2.0,2.0;" x1="0" x2="582" y1="978.7422" y2="978.7422"/><rect fill="none" height="111.7813" id="_legend" rx="7.5" ry="7.5" style="stroke:#000000;stroke-width:1.0;" width="138" x="431" y="1049.3359"/><text fill="#000000" font-family="Helvetica" font-size="14" font-weight="bold" lengthAdjust="spacing" textLength="42" x="441" y="1069.3311">Color</text><text fill="#000000" font-family="Helvetica" font-size="14" font-weight="bold" lengthAdjust="spacing" textLength="66" x="493" y="1069.3311">Meaning</text><rect fill="#66BB6A" height="16.2969" style="stroke:none;stroke-width:1.0;" width="52" x="436" y="1072.6328"/><text fill="#000000" font-family="Helvetica" font-size="14" lengthAdjust="spacing" textLength="8" x="436" y="1085.6279">&#160;&#160;</text><text fill="#000000" font-family="Helvetica" font-size="14" lengthAdjust="spacing" textLength="46" x="492" y="1085.6279">Pickup</text><rect fill="#FFA726" height="16.2969" style="stroke:none;stroke-width:1.0;" width="52" x="436" y="1088.9297"/><text fill="#000000" font-family="Helvetica" font-size="14" lengthAdjust="spacing" textLength="8" x="436" y="1101.9248">&#160;&#160;</text><text fill="#000000" font-family="Helvetica" font-size="14" lengthAdjust="spacing" textLength="47" x="492" y="1101.9248">Driving</text><rect fill="#42A5F5" height="16.2969" style="stroke:none;stroke-width:1.0;" width="52" x="436" y="1105.2266"/><text fill="#000000" font-family="Helvetica" font-size="14" lengthAdjust="spacing" textLength="8" x="436" y="1118.2217">&#160;&#160;</text><text fill="#000000" font-family="Helvetica" font-size="14" lengthAdjust="spacing" textLength="51" x="492" y="1118.2217">Dropoff</text><rect fill="#E0E0E0" height="16.2969" style="stroke:none;stroke-width:1.0;" width="52" x="436" y="1121.5234"/><text fill="#000000" font-family="Helvetica" font-size="14" lengthAdjust="spacing" textLength="8" x="436" y="1134.5186">&#160;&#160;</text><text fill="#000000" font-family="Helvetica" font-size="14" lengthAdjust="spacing" textLength="24" x="492" y="1134.5186">Idle</text><rect fill="#F44336" height="16.2969" style="stroke:none;stroke-width:1.0;" width="52" x="436" y="1137.8203"/><text fill="#000000" font-family="Helvetica" font-size="14" lengthAdjust="spacing" textLength="8" x="436" y="1150.8154">&#160;&#160;</text><text fill="#000000" font-family="Helvetica" font-size="14" lengthAdjust="spacing" textLength="67" x="492" y="1150.8154">Milestone</text><line style="stroke:#000000;stroke-width:1.0;" x1="436" x2="564" y1="1056.3359" y2="1056.3359"/><line style="stroke:#000000;stroke-width:1.0;" x1="436" x2="564" y1="1072.6328" y2="1072.6328"/><line style="stroke:#000000;stroke-width:1.0;" x1="436" x2="564" y1="1088.9297" y2="1088.9297"/><line style="stroke:#000000;stroke-width:1.0;" x1="436" x2="564" y1="1105.2266" y2="1105.2266"/><line style="stroke:#000000;stroke-width:1.0;" x1="436" x2="564" y1="1121.5234" y2="1121.5234"/><line style="stroke:#000000;stroke-width:1.0;" x1="436" x2="564" y1="1137.8203" y2="1137.8203"/><line style="stroke:#000000;stroke-width:1.0;" x1="436" x2="564" y1="1154.1172" y2="1154.1172"/><line style="stroke:#000000;stroke-width:1.0;" x1="436" x2="436" y1="1056.3359" y2="1154.1172"/><line style="stroke:#000000;stroke-width:1.0;" x1="488" x2="488" y1="1056.3359" y2="1154.1172"/><line style="stroke:#000000;stroke-width:1.0;" x1="564" x2="564" y1="1056.3359" y2="1154.1172"/><!--SRC=[tLPDRzf04BtxLuoI2v2FsiOO5PL8q1gbAacgfbKkN3PuGbQONMglQP6Y_lRExjg0dP8cRK-LB-kTUJipRzvudSsvMBAKBU2MJUUpLEOYVYiJcSBXQA0V9zjun7Z7yaIDf52NR85mZiaA5P-o7PyCl-OefdY1MSPcE4ZuJC0KXSBKSHHN2SA76-XuS8CuHn732Opbb2ak1LojC8NFV84JSSqK-EwfvyCHNES2V8_MfxxhTnodtmSovsdCrX2nD5b3l-yu59vIuKic51oOxObubt8wyW1O1b7LOSmKLknZnudWv0mYw46hvNPwdjjgWN60yoz3K1A6qMLqDH7j01PS43sZGTSFQwWW8DH7FftdI-iF3G-Mx7jp8dmB2yFXC1pKOU4cc4LHE8hwPB2mvziKvT9ak0daMKZW3pgZJXtYFQfgy6aORRBxTPpsJb7Q7Hf-4IlOMnJ1kjkY3AeiwibOhoir-LNoYfeS8HM2r7BHm0kUOAQam1uCKQ04mMVt2hIwYDjsXq85GRiTLgMZ9M2KipriJ8TTtTr1dAirD0ZRSKcVljTptIOSHgv-76Ui4nwRX8rfIyws3KKcZzfUm_hFqrWLrGvBYceAgpQ-1ke-Js4rDlPGcoaQ9atCBha2lorfvFUDEOsnfhq-oNPtEyV_vnJ-bM8jHR_Ngyw5YFQwU_LgJ7-eLurzkLu9zNAzQj0_qcj1dXMiFhVAxHXdcdHDQsANgUw40_3G1tiFqk82cU1Y1Wzw_qt1pHcjIo8BWyt967JgEn1ROs6HIqbDAoosIyRoFgQnAOyoEPhjJKraemnjdXL57TFr1UMeaIG4pP8j_mY6BBr548WntStfYa_nb7pjlCNc_YkfIf6-Z683ALuR-YgMT69Juum8gp0htLZtL_isuLL9Uh6N2mCjlmGnfsRG7q8FVdY11_C5jLQn11gtKjqNPsV7OD_OEYEmXkbodPy0]--></g></svg>